<svg xmlns="http://www.w3.org/2000/svg" viewBox="0 0 209.1948 199.48004"><path d="M175.82573,36.20605h-21.6644a52.02806,52.02806,0,0,0-99.12786,0H33.36907A33.408,33.408,0,0,0,0,69.57518v96.53573A33.408,33.408,0,0,0,33.36907,199.48H175.82573a33.408,33.408,0,0,0,33.36907-33.36913V69.57518A33.408,33.408,0,0,0,175.82573,36.20605ZM104.5974,11.18429a40.90584,40.90584,0,0,1,37.65509,25.02176H66.94231A40.90584,40.90584,0,0,1,104.5974,11.18429Zm94.39278,154.92662a23.18651,23.18651,0,0,1-23.16445,23.16451H33.36907a23.18651,23.18651,0,0,1-23.16445-23.16451V69.57518A23.18651,23.18651,0,0,1,33.36907,46.41067H175.82573a23.18651,23.18651,0,0,1,23.16445,23.16451Z"/></svg>