<?xml version="1.0" encoding="UTF-8"?><svg id="b" xmlns="http://www.w3.org/2000/svg" width="353.2105" height="402.8962" viewBox="0 0 353.2105 402.8962"><g id="c"><path d="M339.3263,133.0572c-8.8925-21.0357-21.6307-39.9117-37.84-56.132-4.9807-4.9697-10.2149-9.6198-15.6803-13.9283l-7.4931-30.4792C273.6186,13.3663,256.5608,0,236.8474,0H116.4072c-19.6803,0-36.7271,13.3443-41.4433,32.4516l-7.5481,30.5343c-5.4766,4.3085-10.7107,8.9586-15.6914,13.9394-16.2092,16.2203-28.9475,35.0962-37.84,56.132C4.6722,154.8422,0,177.9826,0,201.8062s4.6722,46.964,13.8843,68.76c8.8925,21.0247,21.6308,39.9116,37.84,56.1209,5.0468,5.0468,10.3581,9.763,15.9008,14.1156l7.2727,29.5866c4.6942,19.1405,21.752,32.5067,41.4654,32.5067h120.4402c19.6803,0,36.7271-13.3443,41.4543-32.4406l7.3278-29.6528c5.5426-4.3526,10.8539-9.0688,15.9007-14.1156,16.2093-16.2093,28.9475-35.0962,37.84-56.1209,9.2121-21.7961,13.8843-44.9254,13.8843-68.76s-4.6721-46.964-13.8843-68.7489ZM75.7793,56.6719l5.5978-22.6335c3.989-16.1542,18.4021-27.4268,35.0301-27.4268h120.4402c16.6611,0,31.0743,11.3057,35.0522,27.482l5.5758,22.7106c-.011,0-.011-.011-.0221-.011-10.0165-6.9862-20.7382-12.9035-32.099-17.7079-21.785-9.2121-44.9144-13.8842-68.749-13.8842s-46.964,4.6721-68.749,13.8842c-11.2396,4.7603-21.8732,10.6115-31.8015,17.5096l-.2755,.0771Zm196.0542,312.1969c-3.989,16.1431-18.3911,27.4158-35.0301,27.4158H116.3631c-16.6611,0-31.0743-11.2947-35.0522-27.4709l-5.3664-21.8732c9.9614,6.9421,20.628,12.8154,31.9117,17.5867,21.785,9.2231,44.9144,13.8952,68.749,13.8952s46.964-4.6721,68.749-13.8952c11.2837-4.7713,21.9393-10.6446,31.9007-17.5757l-5.4215,21.9173Zm-95.2282-12.4848c-85.366,0-154.5668-69.2118-154.5668-154.5778S91.2393,47.2394,176.6053,47.2394s154.5668,69.2008,154.5668,154.5667-69.2008,154.5778-154.5668,154.5778Z"/></g></svg>