<?xml version="1.0" encoding="UTF-8"?><svg id="b" xmlns="http://www.w3.org/2000/svg" width="351.8449" height="401.3384" viewBox="0 0 351.8449 401.3384"><defs><style>.d{stroke-width:5px;}.d,.e{stroke:#000;stroke-miterlimit:10;}.d,.f{fill:#fff;}.e{fill:none;stroke-width:3px;}</style></defs><g id="c"><g><g><path d="M175.6082,58.0991h.3564c.9351,0,1.6943,.7592,1.6943,1.6943v22.7041c0,.9357-.7596,1.6953-1.6953,1.6953h-.355c-.9357,0-1.6953-.7596-1.6953-1.6953v-22.7036c0-.9354,.7594-1.6948,1.6948-1.6948Z"/><path class="f" d="M175.9638,58.2239c.8657,0,1.5701,.7043,1.5701,1.5701v22.7038c0,.8657-.7043,1.57-1.5701,1.57h-.3555c-.8657,0-1.5701-.7043-1.5701-1.57v-22.7038c0-.8657,.7043-1.5701,1.5701-1.5701h.3555m0-.25h-.3555c-1.0052,0-1.8201,.8148-1.8201,1.8201v22.7038c0,1.0052,.8149,1.82,1.8201,1.82h.3555c1.0052,0,1.8201-.8148,1.8201-1.82v-22.7038c0-1.0052-.8149-1.8201-1.8201-1.8201h0Z"/></g><g><path d="M294.5384,198.8926h22.7046c.9351,0,1.6943,.7592,1.6943,1.6943v.356c0,.9357-.7596,1.6953-1.6953,1.6953h-22.7036c-.9357,0-1.6953-.7596-1.6953-1.6953v-.355c0-.9357,.7596-1.6953,1.6953-1.6953Z"/><path class="f" d="M317.2423,198.7676v.25c.8657,0,1.5701,.7043,1.5701,1.57v.3555c0,.8657-.7043,1.5701-1.5701,1.5701h-22.704c-.8657,.0001-1.5701-.7042-1.5701-1.5699v-.3555c0-.8657,.7043-1.5701,1.57-1.5701h22.7041v-.2501m0,0h-22.7041c-1.0052,.0001-1.82,.815-1.82,1.8202v.3555c0,1.0052,.8149,1.82,1.8201,1.82h22.704c1.0052-.0001,1.8201-.815,1.8201-1.8202v-.3555c0-1.0052-.8149-1.82-1.8201-1.82h0Z"/></g><g><path d="M34.5467,203.2622c-.9346,0-1.6948-.7607-1.6948-1.6953v-.3555c0-.4521,.1758-.8779,.4961-1.1982s.7456-.4961,1.1987-.4961h22.7041c.9346,0,1.6948,.7598,1.6948,1.6943v.3555c0,.9346-.7603,1.6953-1.6948,1.6953h-22.7041Z"/><path class="f" d="M57.2508,199.3917v.25c.8657,0,1.5701,.7043,1.5701,1.57v.3555c0,.8657-.7043,1.5701-1.57,1.5701l-22.7041,.0002c-.8657,0-1.5701-.7043-1.5701-1.5701v-.3555c0-.8657,.7043-1.57,1.5701-1.5701h22.704v-.2501m0,0h-22.704c-1.0052,.0002-1.8201,.815-1.8201,1.8202v.3555c0,1.0052,.8149,1.8201,1.8201,1.8201l22.7041-.0002c1.0052,0,1.82-.8149,1.82-1.8201v-.3555c0-1.0051-.8149-1.82-1.8201-1.82h0Z"/></g><g><path d="M176.2894,343.9614c-.502,0-.9731-.1953-1.3271-.5508-.354-.3545-.5483-.8262-.5469-1.3281l.062-22.3193c.0034-1.0273,.8418-1.8652,1.8687-1.8672,.5059,0,.9766,.1953,1.3301,.5498,.354,.3545,.5483,.8262,.5469,1.3281l-.062,22.3203c-.0029,1.0264-.8408,1.8643-1.8687,1.8672h-.0029Z"/><path class="f" d="M176.3504,318.0207c.4677,0,.9071,.1824,1.2374,.5136,.3303,.3312,.5115,.7712,.5102,1.239l-.062,22.3198c-.0027,.9589-.785,1.7408-1.7479,1.7429-.4677,0-.9071-.1824-1.2374-.5136-.3303-.3312-.5115-.7712-.5102-1.239l.062-22.3199c.0027-.9589,.785-1.7408,1.7433-1.7429h.0045m0-.25h-.0045c-1.0994,.0024-1.9903,.8927-1.9933,1.9922l-.062,22.3199c-.0031,1.1057,.8925,2.0032,1.9976,2.0032h.0045c1.0994-.0024,1.9903-.8927,1.9933-1.9922l.062-22.3198c.0031-1.1057-.8926-2.0033-1.9976-2.0033h0Z"/></g><g><path d="M189.2909,74.2066l-.354-.0371c-.4502-.0469-.855-.2666-1.1401-.6191-.2847-.3516-.4155-.793-.3682-1.2441l1.2563-11.958c.0908-.8652,.8145-1.5176,1.6841-1.5176,.0586,0,.1187,.0029,.1782,.0088l.3535,.0371c.9297,.0986,1.6064,.9346,1.5088,1.8643l-1.2563,11.957c-.0908,.8652-.814,1.5176-1.6821,1.5176-.0005,0-.1196-.0029-.1802-.0088Z"/><path class="f" d="M190.3682,58.9555c.0549,0,.1104,.0029,.1662,.0088l.3536,.0372c.861,.0905,1.4879,.8645,1.3973,1.7255l-1.2562,11.9579c-.0842,.8016-.7546,1.4062-1.5593,1.4062-.0549,0-.1104-.0029-.1662-.0088l-.3536-.0372c-.4171-.0438-.7922-.2474-1.0561-.5733-.2639-.3259-.3851-.7351-.3413-1.1522l1.2563-11.9579c.0842-.8016,.7545-1.4062,1.5593-1.4062m0-.25c-.9199,0-1.7097,.6949-1.8079,1.6301l-1.2563,11.9579c-.105,.9997,.6202,1.8953,1.6199,2.0002l.3536,.0372c.0646,.0068,.1288,.0101,.1923,.0101,.9199,0,1.7097-.6949,1.8079-1.6301l1.2562-11.9579c.105-.9997-.6202-1.8952-1.6199-2.0002l-.3536-.0372c-.0646-.0068-.1288-.0101-.1923-.0101h0Z"/></g><g><path d="M202.826,76.3267c-.1187,0-.2378-.0127-.3545-.0371l-.3477-.0742c-.4429-.0947-.8228-.3555-1.0693-.7344-.2466-.3799-.3306-.833-.2368-1.2754l2.499-11.7617c.1655-.7783,.8623-1.3428,1.6567-1.3428,.1182,0,.2373,.0127,.354,.0371l.3477,.0732c.4429,.0947,.8228,.3555,1.0693,.7354s.3306,.833,.2368,1.2754l-2.499,11.7607c-.1655,.7793-.8623,1.3438-1.6562,1.3438h0Z"/><path class="f" d="M204.9734,61.2258c.1095,0,.2199,.0117,.3281,.0346l.3478,.074c.4102,.0872,.762,.3289,.9904,.6805,.2285,.3517,.3063,.7713,.2191,1.1815l-2.4991,11.7612c-.1531,.7209-.7983,1.2441-1.5339,1.2441-.1095,0-.2199-.0117-.3281-.0347l-.3478-.0739c-.4102-.0872-.762-.3289-.9904-.6805-.2285-.3517-.3063-.7713-.2191-1.1815l2.499-11.7612c.1531-.7209,.7983-1.2441,1.5339-1.2441m0-.25c-.8412,0-1.5967,.5864-1.7785,1.4421l-2.499,11.7612c-.2089,.9832,.4188,1.9496,1.402,2.1586l.3477,.0739c.1274,.0271,.2548,.0401,.3801,.0401,.8411,0,1.5967-.5864,1.7785-1.4421l2.4991-11.7612c.2089-.9832-.4188-1.9496-1.402-2.1586l-.3477-.0739c-.1274-.0271-.2548-.0401-.3801-.0401h0Z"/></g><g><path d="M215.8866,79.8218c-.1772,0-.3535-.0283-.5239-.084l-.3379-.1094c-.4307-.1396-.7808-.4385-.9868-.8428-.2056-.4033-.2417-.8623-.1021-1.293l3.7144-11.4355c.228-.7012,.876-1.1729,1.6123-1.1729,.1772,0,.3535,.0283,.5239,.084l.3379,.1104c.4307,.1396,.7812,.4385,.9868,.8418s.2417,.8633,.1021,1.293l-3.7144,11.4355c-.228,.7012-.876,1.1729-1.6123,1.1729h0Z"/><path class="f" d="M219.2624,65.01c.1642,0,.3275,.026,.4854,.0773l.3382,.1099c.3989,.1295,.7234,.4067,.9138,.7803,.1904,.3737,.2239,.7991,.0944,1.198l-3.7145,11.4355c-.2109,.6493-.8109,1.0855-1.4929,1.0855-.1641,0-.3275-.026-.4853-.0773l-.3382-.1099c-.3989-.1295-.7234-.4066-.9138-.7803s-.2239-.7991-.0944-1.198l3.7145-11.4355c.2109-.6493,.8109-1.0856,1.4929-1.0856m0-.25c-.7673,0-1.4808,.4891-1.7307,1.2583l-3.7145,11.4356c-.3105,.956,.2127,1.9828,1.1688,2.2933l.3381,.1099c.1868,.0607,.3763,.0895,.5626,.0895,.7673,0,1.4808-.489,1.7307-1.2582l3.7145-11.4356c.3105-.956-.2128-1.9828-1.1688-2.2933l-.3381-.1099c-.1868-.0607-.3763-.0895-.5626-.0895h0Z"/></g><g><path d="M228.5116,84.6626c-.2378,0-.4692-.0498-.6885-.1475l-.3252-.1445c-.8535-.3799-1.2388-1.3848-.8589-2.2383l4.8892-10.9844c.272-.6113,.8804-1.0059,1.5498-1.0059,.2378,0,.4692,.0488,.688,.1465l.3247,.1445c.8535,.3799,1.2393,1.3848,.8594,2.2383l-4.8892,10.9844c-.272,.6113-.8799,1.0068-1.5493,1.0068h0Z"/><path class="f" d="M233.0777,70.2668c.22,0,.4345,.0458,.6375,.1361l.3248,.1445c.791,.3521,1.148,1.2819,.796,2.0728l-4.8892,10.9848c-.252,.5662-.8155,.9321-1.4355,.9321-.22,0-.4344-.0458-.6373-.1361l-.3248-.1446c-.791-.3521-1.148-1.2819-.796-2.0728l4.8892-10.9848c.252-.5662,.8155-.9321,1.4354-.9321m0-.25c-.697,0-1.3621,.4025-1.6638,1.0804l-4.8892,10.9848c-.4087,.9183,.0044,1.9941,.9227,2.4029l.3248,.1446c.2405,.107,.4918,.1577,.739,.1577,.697,0,1.3622-.4026,1.6639-1.0804l4.8892-10.9848c.4088-.9183-.0043-1.9941-.9227-2.4029l-.3248-.1445c-.2405-.1071-.4918-.1577-.7391-.1577h0Z"/></g><g><path d="M240.5614,90.7954c-.2954,0-.5879-.0781-.8457-.2275l-.3081-.1777c-.3921-.2256-.6724-.5918-.7896-1.0283-.1177-.4375-.0576-.8945,.1689-1.2861l6.0107-10.4141c.3018-.5234,.8647-.8486,1.4692-.8486,.2959,0,.5879,.0791,.8457,.2275l.3081,.1777c.8096,.4678,1.0879,1.5059,.6206,2.3154l-6.0103,10.4141c-.3018,.5225-.8647,.8477-1.4692,.8477h-.0005Z"/><path class="f" d="M246.2672,76.9386c.2737,0,.5445,.0728,.7831,.2105l.308,.1778c.3632,.2096,.623,.5481,.7316,.9532,.1086,.4051,.053,.8282-.1567,1.1914l-6.0104,10.4137c-.2797,.4846-.8015,.7855-1.3616,.7855-.2737,0-.5445-.0728-.7831-.2105l-.3079-.1778c-.7498-.4327-1.0077-1.3948-.575-2.1447l6.0104-10.4136c.2797-.4846,.8015-.7855,1.3616-.7855m0-.25c-.6291,0-1.241,.3265-1.5781,.9105l-6.0104,10.4137c-.5024,.8706-.204,1.9837,.6666,2.4861l.3079,.1777c.2866,.1654,.5994,.244,.9081,.244,.6291,0,1.241-.3265,1.5781-.9105l6.0104-10.4137c.5024-.8706,.204-1.9837-.6666-2.4861l-.3079-.1777c-.2866-.1654-.5994-.244-.9081-.244h0Z"/></g><g><path d="M251.9056,98.1548c-.3594,0-.7031-.1123-.9951-.3242l-.2876-.209c-.7559-.5488-.9243-1.6104-.3755-2.3672l7.0659-9.7285c.3179-.4375,.8315-.6992,1.3735-.6992,.3589,0,.7026,.1123,.9946,.3242l.2876,.209c.3662,.2656,.6069,.6582,.6777,1.1055s-.0366,.8955-.3027,1.2617l-7.0659,9.7295c-.3179,.4375-.8311,.6982-1.3726,.6982h0Z"/><path class="f" d="M258.6865,84.9521c.3325,0,.6511,.1037,.9212,.2999l.2876,.2088c.7004,.5088,.8564,1.4926,.3477,2.1931l-7.0659,9.7285c-.2945,.4055-.77,.6475-1.2719,.6475-.3326,0-.6511-.1037-.9211-.2998l-.2877-.2089c-.3393-.2465-.5624-.6103-.6281-1.0245-.0657-.4142,.0339-.8292,.2803-1.1685l7.0659-9.7286c.2945-.4055,.77-.6475,1.2719-.6475m0-.25c-.563,0-1.118,.2603-1.4741,.7506l-7.0659,9.7286c-.5907,.8133-.4102,1.9515,.4031,2.5422l.2877,.2089c.3229,.2346,.6973,.3475,1.0681,.3475,.5629,0,1.118-.2603,1.4741-.7506l7.0659-9.7285c.5907-.8134,.4102-1.9515-.4031-2.5422l-.2877-.2089c-.3229-.2346-.6973-.3476-1.0681-.3476h0Z"/></g><g><path d="M262.4193,106.6597c-.4194,0-.8218-.1553-1.1338-.4355l-.2646-.2373c-.3364-.3027-.5347-.7188-.5586-1.1709-.0234-.4521,.1304-.8867,.4331-1.2227l8.0435-8.9375c.3208-.3564,.7803-.5615,1.2603-.5615,.4194,0,.8218,.1553,1.1338,.4355l.2646,.2373c.6943,.626,.7505,1.7002,.1255,2.3945l-8.0435,8.9365c-.3208,.3564-.7803,.5615-1.2603,.5615h0Z"/><path class="f" d="M270.1996,94.2196c.3882,0,.761,.1432,1.0497,.4031l.2643,.2379c.6434,.5791,.6957,1.5738,.1166,2.2173l-8.0438,8.9369c-.2973,.3303-.7229,.5197-1.1675,.5197-.3882,0-.761-.1432-1.0498-.4031l-.2643-.2378c-.3117-.2806-.4955-.6658-.5175-1.0845-.022-.4188,.1204-.8211,.401-1.1328l8.0438-8.9369c.2972-.3303,.7228-.5197,1.1675-.5197m0-.25c-.498,0-.994,.2031-1.3534,.6025l-8.0438,8.9369c-.6725,.7471-.612,1.8979,.1351,2.5704l.2643,.2379c.3478,.313,.7832,.4673,1.217,.4673,.4979,0,.994-.2032,1.3533-.6025l8.0438-8.9369c.6724-.7471,.6119-1.8979-.1352-2.5704l-.2642-.2379c-.3478-.313-.7833-.4673-1.217-.4673h0Z"/></g><g><path d="M271.9867,116.2163c-.48,0-.9395-.2051-1.2607-.5615l-.2378-.2637c-.6255-.6943-.5693-1.7676,.125-2.3936l8.9336-8.0479c.312-.2803,.7144-.4355,1.1338-.4355,.48,0,.9395,.2051,1.2603,.5615l.2383,.2637c.3027,.3359,.4565,.7705,.4331,1.2227-.0239,.4521-.2222,.8682-.5581,1.1709l-8.9336,8.0479c-.312,.2803-.7144,.4355-1.1338,.4355h0Z"/><path class="f" d="M280.6808,104.6395c.4445,0,.8699,.1893,1.1672,.5193l.2379,.264c.5794,.6433,.5275,1.638-.1157,2.2175l-8.9337,8.0473c-.2889,.2602-.6619,.4035-1.0502,.4035-.4445,0-.8699-.1893-1.1672-.5193l-.2379-.264c-.5794-.6433-.5275-1.638,.1157-2.2175l8.9337-8.0473c.2889-.2602,.6619-.4035,1.0502-.4035m0-.2499c-.4341,0-.8696,.1543-1.2175,.4677l-8.9337,8.0473c-.7469,.6728-.8069,1.8236-.1342,2.5705l.238,.2641c.3593,.3989,.8552,.6019,1.3529,.6019,.4341,0,.8696-.1543,1.2175-.4677l8.9337-8.0473c.7469-.6728,.8069-1.8236,.1342-2.5705l-.2379-.2641c-.3593-.3989-.8552-.6019-1.3529-.6019h0Z"/></g><g><path d="M280.5023,126.7202c-.5415,0-1.0547-.2607-1.3726-.6982l-.209-.2871c-.2661-.3662-.374-.8145-.3032-1.2627,.0708-.4473,.311-.8398,.6777-1.1055l9.7261-7.0693c.2915-.2129,.6357-.3242,.9946-.3242,.5415,0,1.0547,.2607,1.3726,.6982l.209,.2871c.5493,.7559,.3813,1.8184-.3745,2.3691l-9.7256,7.0684c-.2915,.2129-.6357,.3242-.9951,.3242h0Z"/><path class="f" d="M290.016,116.0978c.5016,0,.977,.2419,1.2715,.647l.209,.2876c.509,.7003,.3534,1.6841-.3469,2.1932l-9.7258,7.0696c-.2702,.1964-.5889,.3002-.9217,.3002-.5016,0-.9769-.2419-1.2715-.647l-.209-.2876c-.509-.7003-.3534-1.6841,.3469-2.1932l9.7258-7.0696c.2702-.1964,.5889-.3002,.9217-.3002m0-.25c-.3711,0-.7455,.1132-1.0687,.348l-9.7258,7.0696c-.8131,.5911-.9931,1.7293-.4021,2.5424l.209,.2876c.3561,.4899,.9111,.75,1.4737,.75,.3712,0,.7455-.113,1.0687-.348l9.7258-7.0696c.8131-.5911,.9931-1.7293,.4021-2.5424l-.209-.2876c-.3561-.4899-.911-.7501-1.4737-.7501h0Z"/></g><g><path d="M287.8739,138.0572c-.605,0-1.168-.3252-1.4697-.8477l-.1782-.3076c-.4673-.8096-.1895-1.8477,.6196-2.3154l10.4116-6.0146c.2578-.1494,.5503-.2275,.8462-.2275,.6045,0,1.1675,.3242,1.4692,.8467l.1777,.3086c.2266,.3916,.2871,.8486,.1699,1.2861s-.3975,.8027-.7896,1.0293l-10.4111,6.0146c-.2578,.1484-.5503,.2275-.8457,.2275h0Z"/><path class="f" d="M298.1033,128.469c.5599,0,1.0815,.3008,1.3612,.785l.1779,.3079c.2098,.3631,.2656,.7862,.1572,1.1913-.1085,.4051-.3682,.7437-.7313,.9535l-10.4113,6.0145c-.2388,.1379-.5098,.2109-.7837,.2109-.5599,0-1.0814-.3008-1.3612-.785l-.1778-.3078c-.433-.7496-.1755-1.7119,.5741-2.1449l10.4114-6.0145c.2388-.1379,.5098-.2109,.7836-.2109m0-.25c-.309,0-.6219,.0787-.9087,.2444l-10.4114,6.0145c-.8704,.5028-1.1683,1.616-.6655,2.4865l.1779,.3078c.3372,.5836,.9489,.91,1.5776,.91,.309,0,.6219-.0787,.9088-.2444l10.4113-6.0145c.8704-.5028,1.1684-1.616,.6656-2.4864l-.1779-.3079c-.3372-.5836-.9489-.9099-1.5777-.9099h0Z"/></g><g><path d="M294.0184,150.1021c-.6689,0-1.2769-.3945-1.5493-1.0059l-.145-.3242c-.3799-.8535,.0054-1.8584,.8584-2.2383l10.9829-4.8936c.2197-.0977,.4517-.1475,.6895-.1475,.6689,0,1.2769,.3945,1.5488,1.0059l.1445,.3242c.3804,.8535-.0044,1.8574-.8579,2.2383l-10.9829,4.8936c-.2192,.0977-.4512,.1475-.689,.1475h0Z"/><path class="f" d="M304.8543,141.6175c.6198,0,1.1831,.3657,1.4352,.9315l.1447,.3248c.1707,.3831,.1819,.8097,.0317,1.2012-.1501,.3915-.4438,.7012-.8269,.8719l-10.9829,4.8936c-.2031,.0905-.4177,.1364-.6379,.1364-.6197,0-1.183-.3657-1.4352-.9315l-.1447-.3248c-.1707-.3831-.1819-.8097-.0317-1.2012,.1501-.3915,.4438-.7012,.8269-.8719l10.9829-4.8936c.2031-.0905,.4177-.1364,.6379-.1364m0-.25c-.2475,0-.499,.0508-.7397,.158l-10.9829,4.8936c-.9182,.4091-1.3309,1.485-.9218,2.4032l.1447,.3248c.3019,.6775,.9668,1.0798,1.6635,1.0798,.2475,0,.499-.0508,.7397-.158l10.9829-4.8936c.9182-.4091,1.3309-1.485,.9218-2.4032l-.1447-.3248c-.3019-.6775-.9669-1.0798-1.6636-1.0798h0Z"/></g><g><path d="M298.8705,162.7232c-.7363,0-1.3843-.4707-1.6123-1.1719l-.1099-.3379c-.1401-.4307-.104-.8896,.1016-1.293,.2056-.4043,.5557-.7031,.9863-.8428l11.4341-3.7188c.1709-.0557,.3477-.084,.5254-.084,.7354,0,1.3833,.4707,1.6113,1.1719l.1099,.3379c.2886,.8877-.1992,1.8467-1.0879,2.1357l-11.4341,3.7188c-.1704,.0557-.3472,.084-.5244,.084h0Z"/><path class="f" d="M310.195,155.3997c.6818,0,1.2816,.436,1.4927,1.0849l.11,.3381c.1297,.3988,.0964,.8242-.0939,1.198-.1903,.3737-.5147,.6509-.9135,.7807l-11.4341,3.7189c-.1581,.0514-.3216,.0775-.486,.0775-.6818,0-1.2817-.436-1.4927-1.0849l-.11-.3381c-.2678-.8232,.1842-1.7109,1.0074-1.9787l11.4342-3.7189c.1581-.0514,.3216-.0775,.486-.0775m0-.25c-.1866,0-.3763,.0289-.5633,.0897l-11.4342,3.7189c-.9559,.3109-1.4788,1.3378-1.1678,2.2938l.11,.3381c.2501,.7688,.9634,1.2576,1.7305,1.2576,.1866,0,.3762-.0289,.5633-.0897l11.4341-3.7189c.9559-.3109,1.4788-1.3379,1.1678-2.2938l-.11-.3381c-.25-.7689-.9634-1.2576-1.7304-1.2576h0Z"/></g><g><path d="M302.3768,175.7818c-.7944,0-1.4907-.5645-1.6567-1.3428l-.0737-.3477c-.0942-.4424-.0103-.8955,.2363-1.2754,.2461-.3799,.626-.6406,1.0684-.7354l11.7603-2.5039c.1172-.0244,.2363-.0371,.3545-.0371,.7944,0,1.4907,.5645,1.6567,1.3428l.0742,.3477c.1943,.9141-.3911,1.8164-1.3052,2.0107l-11.7603,2.5039c-.1172,.0244-.2363,.0371-.3545,.0371h0Z"/><path class="f" d="M314.0662,169.6645c.7354,0,1.3804,.523,1.5339,1.2435l.074,.3478c.0873,.4102,.0097,.8298-.2186,1.1816-.2283,.3518-.5799,.5936-.9901,.681l-11.7602,2.5037c-.1084,.0231-.219,.0348-.3287,.0348-.7354,0-1.3804-.523-1.5339-1.2435l-.074-.3477c-.1802-.8467,.362-1.6823,1.2087-1.8625l11.7602-2.5037c.1084-.0231,.219-.0348,.3287-.0348m0-.25c-.1256,0-.2531,.0131-.3808,.0403l-11.7602,2.5037c-.9832,.2093-1.6105,1.176-1.4012,2.1591l.074,.3477c.1821,.8554,.9376,1.4415,1.7784,1.4415,.1256,0,.2531-.0131,.3808-.0403l11.7602-2.5037c.9832-.2093,1.6105-1.176,1.4011-2.1591l-.074-.3477c-.1821-.8554-.9376-1.4415-1.7784-1.4415h0Z"/></g><g><path d="M304.4994,189.1353c-.8687,0-1.5918-.6523-1.6826-1.5166l-.0376-.3545c-.0981-.9287,.5781-1.7646,1.5078-1.8633l11.9575-1.2607c.0605-.0059,.1206-.0088,.1802-.0088,.8682,0,1.5923,.6523,1.6831,1.5166l.0371,.3535c.0479,.4502-.083,.8926-.3677,1.2441-.2852,.3525-.6899,.5723-1.1401,.6201l-11.9575,1.2607c-.0605,.0059-.1206,.0088-.1802,.0088Z"/><path class="f" d="M316.4244,184.2558c.8044,0,1.4747,.6042,1.5592,1.4056l.0373,.3536c.0439,.4171-.0771,.8262-.3409,1.1523-.2638,.326-.6387,.5297-1.0558,.5737l-11.9575,1.2609c-.0561,.0059-.1118,.0088-.1669,.0088-.8044,0-1.4746-.6042-1.5591-1.4056l-.0373-.3535c-.0439-.4171,.0771-.8263,.3409-1.1523,.2638-.326,.6388-.5298,1.0559-.5738l11.9574-1.2609c.0561-.0059,.1116-.0088,.1669-.0088m0-.25c-.0639,0-.1282,.0034-.1931,.0102l-11.9574,1.2609c-.9997,.1054-1.7246,1.0013-1.6192,2.0009l.0373,.3535c.0986,.9348,.8883,1.6293,1.8077,1.6293,.0638,0,.1282-.0034,.1932-.0102l11.9575-1.2609c.9996-.1054,1.7245-1.0012,1.6191-2.0009l-.0373-.3536c-.0986-.9347-.8884-1.6293-1.8078-1.6293h0Z"/></g><g><path d="M316.3021,217.3853l-11.9585-1.252c-.9297-.0977-1.6064-.9326-1.5093-1.8633l.0371-.3535c.0908-.8652,.8149-1.5176,1.6841-1.5176,.0586,0,.1187,.0029,.1782,.0088l11.958,1.252c.4507,.0479,.8555,.2666,1.1406,.6191,.2852,.3516,.416,.793,.3687,1.2441l-.0371,.3535c-.0903,.8652-.8135,1.5176-1.6816,1.5176,0,0-.1196-.0029-.1802-.0088Z"/><path class="f" d="M304.5549,212.5235c.0547,0,.1101,.0029,.1658,.0087l11.9583,1.2521c.4171,.0436,.7923,.2471,1.0563,.5729,.264,.3259,.3854,.735,.3417,1.1521l-.037,.3536c-.0839,.8019-.7543,1.4067-1.5593,1.4067-.0547,0-.1101-.0029-.1657-.0087l-11.9584-1.2521c-.4171-.0436-.7922-.2471-1.0563-.5729-.264-.3259-.3854-.735-.3417-1.1521l.037-.3535c.0839-.8019,.7543-1.4067,1.5593-1.4067m0-.25c-.92,0-1.71,.6953-1.8079,1.6307l-.037,.3536c-.1047,.9997,.6209,1.895,1.6206,1.9997l11.9584,1.2521c.0644,.0067,.1284,.0101,.1918,.0101,.92,0,1.71-.6953,1.8079-1.6307l.037-.3536c.1047-.9997-.6208-1.895-1.6206-1.9997l-11.9584-1.2521c-.0644-.0067-.1284-.0101-.1918-.0101h0Z"/></g><g><path d="M314.1786,231.9947c-.1182,0-.2373-.0127-.354-.0371l-11.7622-2.4951c-.4429-.0938-.8228-.3545-1.0693-.7344-.2471-.3799-.3311-.833-.2373-1.2754l.0737-.3477c.1655-.7793,.8618-1.3438,1.6558-1.3438,.1187,0,.2378,.0127,.3545,.0371l11.7622,2.4951c.4429,.0938,.8228,.3545,1.0693,.7344,.2471,.3799,.3311,.833,.2373,1.2754l-.0737,.3477c-.1655,.7793-.8618,1.3438-1.6558,1.3438h-.0005Z"/><path class="f" d="M302.4862,225.8861c.1093,0,.2195,.0116,.3276,.0345l11.762,2.4951c.4103,.087,.7621,.3286,.9906,.6802,.2286,.3516,.3065,.7712,.2195,1.1815l-.0738,.3478c-.153,.7212-.7981,1.2446-1.5341,1.2446-.1093,0-.2195-.0116-.3276-.0345l-11.762-2.495c-.4103-.087-.7621-.3286-.9907-.6802-.2285-.3516-.3065-.7712-.2194-1.1815l.0738-.3478c.153-.7212,.7982-1.2446,1.5341-1.2446m0-.25c-.8413,0-1.597,.5868-1.7786,1.4427l-.0738,.3478c-.2086,.9833,.4194,1.9495,1.4028,2.1581l11.762,2.495c.1273,.027,.2543,.04,.3795,.04,.8414,0,1.597-.5867,1.7786-1.4427l.0738-.3478c.2086-.9833-.4194-1.9495-1.4028-2.1581l-11.762-2.4951c-.1273-.027-.2543-.04-.3795-.04h0Z"/></g><g><path d="M310.3607,246.2739c-.1772,0-.353-.0273-.5229-.083l-11.437-3.7109c-.8887-.2881-1.3774-1.2461-1.0889-2.1357l.1094-.3369c.2275-.7021,.876-1.1729,1.6128-1.1729,.1772,0,.353,.0273,.5229,.083l11.4365,3.7109c.8892,.2881,1.3779,1.2461,1.0894,2.1357l-.1094,.3369c-.2275,.7021-.876,1.1729-1.6128,1.1729Z"/><path class="f" d="M299.0333,238.9593c.1641,0,.3272,.0259,.485,.0771l11.4368,3.7105c.3989,.1295,.7236,.4065,.9141,.78,.1906,.3736,.2242,.799,.0948,1.1979l-.1097,.3382c-.2108,.6495-.8108,1.086-1.493,1.086-.164,0-.3271-.0259-.4849-.0771l-11.4369-3.7105c-.8235-.2672-1.2761-1.1545-1.0089-1.978l.1097-.3381c.2108-.6496,.8107-1.0861,1.493-1.0861m0-.25c-.7675,0-1.4811,.4894-1.7308,1.2589l-.1097,.3381c-.3102,.9561,.2134,1.9827,1.1696,2.2929l11.4369,3.7105c.1866,.0605,.376,.0894,.5621,.0894,.7675,0,1.4811-.4894,1.7308-1.2589l.1097-.3382c.3102-.9561-.2134-1.9827-1.1696-2.2929l-11.4368-3.7105c-.1866-.0605-.376-.0894-.5621-.0894h0Z"/></g><g><path d="M305.0726,260.0767c-.2373,0-.4683-.0488-.687-.1465l-10.9868-4.8857c-.4136-.1836-.731-.5176-.8936-.9404s-.1504-.8838,.0337-1.2969l.1445-.3252c.2715-.6113,.8799-1.0068,1.5498-1.0068,.2373,0,.4688,.0488,.6875,.1465l10.9868,4.8857c.4136,.1836,.731,.5176,.8931,.9404,.1626,.4229,.1509,.8838-.0332,1.2969l-.1445,.3252c-.272,.6113-.8804,1.0068-1.5503,1.0068h0Z"/><path class="f" d="M294.2331,251.6001c.2198,0,.4341,.0458,.637,.1359l10.9865,4.8855c.3832,.1703,.6771,.4798,.8276,.8712,.1505,.3915,.1395,.8181-.0309,1.2013l-.1444,.3248c-.2519,.5665-.8154,.9326-1.4356,.9326-.2198,0-.4341-.0457-.637-.1359l-10.9865-4.8854c-.791-.3517-1.1484-1.2815-.7967-2.0725l.1445-.3249c.2519-.5665,.8154-.9326,1.4356-.9326m0-.25c-.6973,0-1.3625,.4028-1.6641,1.081l-.1445,.3249c-.4084,.9185,.0051,1.9941,.9236,2.4025l10.9865,4.8854c.2403,.1069,.4915,.1575,.7385,.1575,.6972,0,1.3625-.4028,1.6641-1.081l.1444-.3248c.4084-.9185-.0051-1.9941-.9235-2.4025l-10.9865-4.8855c-.2403-.1068-.4915-.1575-.7385-.1575h0Z"/></g><g><path d="M298.3719,273.2505c-.2954,0-.5874-.0781-.8447-.2266l-10.416-6.0068c-.8091-.4678-1.0879-1.5059-.6211-2.3154l.1772-.3076c.3018-.5234,.8652-.8486,1.4702-.8486,.2954,0,.5879,.0781,.8452,.2266l10.4155,6.0068c.8096,.4668,1.0884,1.5059,.6216,2.3154l-.1777,.3076c-.3018,.5234-.8652,.8486-1.4702,.8486h0Z"/><path class="f" d="M288.1375,263.6701c.2734,0,.5441,.0727,.7827,.2103l10.4158,6.0068c.3633,.2095,.6232,.548,.732,.953,.1087,.405,.0532,.8282-.1563,1.1915l-.1776,.308c-.2796,.4848-.8014,.786-1.3618,.786-.2735,0-.5442-.0728-.7827-.2103l-10.4158-6.0069c-.3633-.2095-.6232-.548-.7319-.9529-.1088-.4051-.0533-.8282,.1562-1.1915l.1776-.308c.2796-.4848,.8014-.7859,1.3618-.7859m0-.25c-.6294,0-1.2414,.3267-1.5784,.9111l-.1776,.308c-.5022,.8708-.2034,1.9838,.6674,2.4859l10.4158,6.0069c.2864,.1652,.5991,.2437,.9076,.2437,.6293,0,1.2413-.3268,1.5783-.9111l.1776-.308c.5022-.8707,.2034-1.9837-.6674-2.4859l-10.4158-6.0068c-.2864-.1652-.5991-.2437-.9075-.2437h0Z"/></g><g><path d="M290.3314,285.6529c-.3584,0-.7021-.1123-.9937-.3242l-9.731-7.0625c-.7559-.5488-.9248-1.6104-.376-2.3672l.2085-.2881c.3179-.4375,.8315-.6992,1.373-.6992,.3594,0,.7031,.1123,.9951,.3242l9.731,7.0625c.3662,.2656,.6069,.6582,.6782,1.1055,.0708,.4473-.0366,.8955-.3022,1.2617l-.209,.2871c-.3184,.4385-.8315,.7002-1.3735,.7002h-.0005Z"/><path class="f" d="M280.813,275.0368c.3323,0,.6507,.1036,.9207,.2995l9.731,7.0625c.7006,.5085,.8569,1.4922,.3484,2.1929l-.2089,.2877c-.2944,.4057-.77,.6479-1.2722,.6479-.3323,0-.6508-.1036-.9207-.2995l-9.731-7.0625c-.3394-.2463-.5626-.61-.6284-1.0242-.0658-.4142,.0336-.8292,.28-1.1686l.2088-.2877c.2945-.4057,.7701-.6479,1.2722-.6479m0-.25c-.5632,0-1.1185,.2605-1.4745,.7511l-.2088,.2877c-.5905,.8135-.4095,1.9517,.4039,2.5421l9.731,7.0625c.3229,.2343,.697,.3472,1.0676,.3472,.5632,0,1.1184-.2605,1.4745-.7511l.2089-.2877c.5904-.8135,.4095-1.9517-.4039-2.5421l-9.731-7.0625c-.3229-.2343-.6969-.3472-1.0675-.3472h0Z"/></g><g><path d="M281.0409,297.146c-.4189,0-.8213-.1543-1.1333-.4346l-8.9395-8.041c-.3364-.3027-.5352-.7188-.5591-1.1709s.1294-.8867,.4321-1.2227l.2378-.2637c.3213-.3574,.7808-.5625,1.2612-.5625,.4185,0,.8208,.1543,1.1328,.4346l8.9395,8.041c.3364,.3027,.5352,.7188,.5591,1.1709s-.1294,.8867-.4321,1.2227l-.2378,.2646c-.3213,.3574-.7808,.5615-1.2607,.5615Z"/><path class="f" d="M272.3399,285.5758c.3879,0,.7606,.143,1.0493,.4027l8.9396,8.0407c.6437,.579,.6963,1.5737,.1174,2.2173l-.2378,.2643c-.2973,.3305-.723,.5201-1.1679,.5201-.388,0-.7606-.143-1.0494-.4027l-8.9396-8.0407c-.3118-.2805-.4957-.6656-.5179-1.0844-.0222-.4188,.1201-.8212,.4006-1.133l.2377-.2643c.2973-.3305,.723-.5201,1.168-.5201m0-.25c-.4982,0-.9944,.2034-1.3538,.6029l-.2377,.2643c-.6722,.7474-.6113,1.8981,.136,2.5704l8.9396,8.0407c.3478,.3128,.7829,.4669,1.2166,.4669,.4982,0,.9944-.2033,1.3538-.6029l.2378-.2643c.6722-.7474,.6113-1.8981-.1361-2.5704l-8.9396-8.0407c-.3477-.3128-.7829-.4669-1.2165-.4669h0Z"/></g><g><path d="M270.5995,307.606c-.4795,0-.939-.2041-1.2603-.5605l-8.0503-8.9307c-.625-.6943-.5693-1.7686,.1245-2.3945l.2637-.2373c.312-.2812,.7148-.4365,1.1343-.4365,.4795,0,.939,.2041,1.2598,.5605l8.0508,8.9307c.625,.6943,.5693,1.7686-.1245,2.3945l-.2637,.2373c-.312,.2812-.7148,.4365-1.1343,.4365h0Z"/><path class="f" d="M262.8117,295.1717c.4443,0,.8696,.1891,1.1668,.5188l8.0503,8.931c.5797,.6431,.5281,1.6378-.1149,2.2174l-.2642,.2381c-.2889,.2604-.662,.4038-1.0506,.4038-.4443,0-.8696-.1891-1.1668-.5188l-8.0504-8.931c-.5796-.6431-.528-1.6378,.1151-2.2175l.264-.238c.2889-.2604,.6621-.4039,1.0507-.4039m0-.25c-.4343,0-.8701,.1545-1.2181,.4681l-.264,.238c-.7466,.673-.8063,1.8239-.1333,2.5705l8.0504,8.931c.3594,.3987,.8549,.6014,1.3525,.6014,.4343,0,.8701-.1545,1.218-.4681l.2641-.238c.7466-.673,.8063-1.8239,.1333-2.5705l-8.0504-8.931c-.3594-.3987-.855-.6014-1.3525-.6014h0Z"/></g><g><path d="M259.1219,316.9165c-.5415,0-1.0547-.2607-1.3726-.6973l-7.0732-9.7236c-.2661-.3662-.374-.8145-.3037-1.2617,.0708-.4473,.3115-.8398,.6777-1.1055l.2871-.209c.292-.2129,.6362-.3252,.9961-.3252,.541,0,1.0542,.2607,1.3721,.6973l7.0728,9.7236c.5493,.7559,.3818,1.8184-.374,2.3691l-.2871,.209c-.2915,.2119-.6357,.3232-.9951,.3232Z"/><path class="f" d="M252.333,303.7191c.5015,0,.9767,.2417,1.2712,.6466l7.073,9.7233c.2467,.3392,.3466,.7541,.2812,1.1683s-.2881,.7783-.6273,1.025l-.2875,.2092c-.2703,.1965-.5891,.3005-.9221,.3005-.5015,0-.9767-.2418-1.2712-.6466l-7.0729-9.7233c-.5093-.7001-.354-1.684,.3461-2.1933l.2874-.2092c.2703-.1966,.5891-.3005,.9221-.3005m0-.25c-.3713,0-.7459,.1132-1.0692,.3483l-.2875,.2092c-.8129,.5913-.9925,1.7296-.4012,2.5425l7.0729,9.7233c.3562,.4896,.9109,.7496,1.4734,.7496,.3713,0,.7458-.1132,1.0691-.3483l.2875-.2092c.8129-.5913,.9925-1.7296,.4012-2.5425l-7.073-9.7233c-.3561-.4897-.9109-.7496-1.4733-.7496h0Z"/></g><g><path d="M246.7323,324.978c-.604,0-1.1665-.3252-1.4683-.8477l-6.0181-10.4092c-.2271-.3916-.2876-.8486-.1704-1.2861,.1167-.4375,.397-.8027,.7891-1.0293l.3076-.1777c.2583-.1494,.5513-.2285,.8472-.2285,.6045,0,1.167,.3252,1.4688,.8477l6.0181,10.4092c.2266,.3916,.2871,.8486,.1704,1.2861-.1172,.4375-.3975,.8027-.7891,1.0293l-.3081,.1777c-.2578,.1494-.5508,.2285-.8467,.2285h-.0005Z"/><path class="f" d="M241.0192,311.1248c.5597,0,1.0811,.3006,1.3609,.7845l6.0181,10.4093c.4333,.7495,.1761,1.7117-.5734,2.1451l-.3078,.1779c-.2389,.1381-.5101,.2111-.7842,.2111-.5596,0-1.0811-.3006-1.3609-.7845l-6.0181-10.4093c-.4333-.7495-.1761-1.7118,.5734-2.1451l.3078-.1779c.2389-.1381,.5101-.2111,.7842-.2111m0-.25c-.3092,0-.6224,.0788-.9093,.2447l-.3078,.1779c-.8702,.5031-1.1678,1.6164-.6647,2.4866l6.0181,10.4093c.3373,.5833,.9487,.9094,1.5773,.9094,.3091,0,.6224-.0789,.9093-.2447l.3078-.1779c.8702-.5031,1.1678-1.6165,.6647-2.4866l-6.0181-10.4093c-.3372-.5833-.9488-.9094-1.5773-.9094h0Z"/></g><g><path d="M233.5687,331.6997c-.6689,0-1.2769-.3945-1.5488-1.0049l-4.8975-10.9814c-.1846-.4141-.1968-.874-.0347-1.2969s.479-.7568,.8921-.9414l.3247-.1445c.2197-.0977,.4517-.1475,.6899-.1475,.6685,0,1.2764,.3945,1.5488,1.0049l4.897,10.9805c.3809,.8535-.0039,1.8584-.8574,2.2393l-.3247,.1445c-.2192,.0977-.4512,.1475-.6895,.1475Z"/><path class="f" d="M228.9942,317.3076c.6194,0,1.1827,.3654,1.4349,.931l4.8973,10.9812c.3526,.7907-.0038,1.7208-.7944,2.0734l-.3247,.1448c-.2032,.0906-.4181,.1366-.6385,.1366-.6194,0-1.1827-.3654-1.4349-.931l-4.8973-10.9812c-.1708-.3831-.1823-.8096-.0322-1.2012,.1501-.3916,.4437-.7014,.8267-.8722l.3246-.1448c.2032-.0906,.4181-.1366,.6385-.1366m0-.25c-.2477,0-.4994,.0508-.7403,.1583l-.3246,.1448c-.918,.4094-1.3304,1.4855-.921,2.4036l4.8973,10.9812c.302,.6771,.9668,1.0792,1.6633,1.0792,.2477,0,.4994-.0508,.7403-.1583l.3247-.1448c.918-.4094,1.3303-1.4855,.921-2.4036l-4.8973-10.9812c-.302-.6771-.9668-1.0792-1.6633-1.0792h0Z"/></g><g><path d="M219.7748,337.0093c-.7363,0-1.3843-.4707-1.6128-1.1719l-3.7227-11.4326c-.2891-.8877,.1987-1.8467,1.0869-2.1357l.3379-.1104c.1704-.0557,.3472-.084,.5249-.084,.7358,0,1.3838,.4707,1.6123,1.1709l3.7227,11.4336c.1401,.4297,.1045,.8887-.1011,1.293-.2051,.4033-.5552,.7031-.9858,.8428l-.3379,.1104c-.1704,.0557-.3472,.084-.5244,.084h0Z"/><path class="f" d="M216.3897,322.1999c.6815,0,1.2812,.4358,1.4925,1.0844l3.7228,11.4329c.1299,.3988,.0967,.8243-.0934,1.1981-.1902,.3738-.5145,.6512-.9133,.781l-.338,.11c-.1583,.0515-.3219,.0776-.4865,.0776-.6815,0-1.2814-.4358-1.4926-1.0844l-3.7229-11.4329c-.1299-.3988-.0966-.8243,.0935-1.1981,.1902-.3738,.5145-.6512,.9133-.781l.338-.11c.1583-.0516,.322-.0777,.4866-.0777m0-.25c-.1868,0-.3767,.029-.564,.09l-.338,.11c-.9558,.3112-1.4783,1.3384-1.1671,2.2942l3.7229,11.4329c.2502,.7686,.9635,1.257,1.7303,1.257,.1868,0,.3767-.0289,.5639-.0899l.338-.11c.9558-.3113,1.4783-1.3384,1.1671-2.2942l-3.7228-11.4329c-.2503-.7686-.9635-1.257-1.7302-1.257h0Z"/></g><g><path d="M205.4989,340.8472c-.7935,0-1.4897-.5645-1.6558-1.3418l-2.5078-11.7598c-.1948-.9131,.3906-1.8154,1.3042-2.0107l.3477-.0742c.1177-.0244,.2373-.0371,.356-.0371,.7939,0,1.4897,.5635,1.6558,1.3418l2.5078,11.7598c.1948,.9131-.3906,1.8154-1.3042,2.0107l-.3477,.0742c-.1177,.0244-.2373,.0371-.356,.0371h0Z"/><path class="f" d="M203.3429,325.7482c.7351,0,1.3801,.5228,1.5338,1.243l2.5077,11.7593c.1805,.8467-.3614,1.6824-1.2081,1.863l-.3477,.0742c-.1086,.0232-.2194,.0349-.3293,.0349-.735,0-1.3801-.5228-1.5337-1.243l-2.5077-11.7593c-.0875-.4102-.01-.8298,.2182-1.1817,.2281-.3519,.5797-.5938,.9899-.6813l.3476-.0742c.1086-.0232,.2194-.0349,.3293-.0349m0-.25c-.1258,0-.2534,.0131-.3814,.0404l-.3477,.0742c-.9831,.2097-1.6101,1.1765-1.4005,2.1596l2.5077,11.7593c.1824,.8551,.9377,1.4409,1.7782,1.4409,.1258,0,.2534-.0131,.3814-.0404l.3477-.0742c.9831-.2097,1.6101-1.1765,1.4005-2.1596l-2.5077-11.7593c-.1824-.8551-.9377-1.4409-1.7783-1.4409h0Z"/></g><g><path d="M190.9032,343.1734c-.8682,0-1.5923-.6523-1.6836-1.5166l-1.2651-11.957c-.0479-.4502,.083-.8926,.3677-1.2441,.2847-.3525,.6895-.5723,1.1396-.6201l.3535-.0381c.0605-.0059,.1206-.0088,.1802-.0088,.8682,0,1.5923,.6523,1.6836,1.5166l1.2651,11.957c.0479,.4502-.083,.8926-.3677,1.2441-.2847,.3525-.6895,.5723-1.1396,.6201l-.3535,.0381c-.0605,.0059-.1206,.0088-.1802,.0088Z"/><path class="f" d="M189.9958,327.9135c.8041,0,1.4744,.604,1.5591,1.405l1.265,11.957c.0441,.4171-.0768,.8263-.3405,1.1524-.2637,.3261-.6386,.53-1.0557,.5741l-.3535,.0374c-.0563,.0059-.1121,.0089-.1674,.0089-.8041,0-1.4744-.604-1.5591-1.405l-1.265-11.957c-.0441-.4171,.0768-.8264,.3405-1.1524,.2637-.3261,.6386-.53,1.0557-.5742l.3535-.0374c.0563-.0059,.1121-.0089,.1674-.0089m0-.25c-.064,0-.1286,.0034-.1937,.0103l-.3535,.0374c-.9996,.1058-1.7242,1.0018-1.6185,2.0015l1.265,11.957c.0989,.9345,.8885,1.6287,1.8077,1.6287,.064,0,.1286-.0034,.1937-.0103l.3535-.0374c.9996-.1057,1.7242-1.0018,1.6185-2.0014l-1.265-11.957c-.0989-.9345-.8886-1.6287-1.8077-1.6287h0Z"/></g><g><path d="M161.5628,343.23l-.354-.0361c-.4497-.0479-.855-.2666-1.1401-.6191-.2852-.3516-.4165-.793-.3691-1.2432l1.248-11.959c.0898-.8662,.8135-1.5186,1.6831-1.5186,.0591,0,.1187,.0029,.1782,.0088l.354,.0361c.4502,.0469,.855,.2666,1.1401,.6191,.2852,.3516,.4165,.793,.3691,1.2432l-1.248,11.959c-.0898,.8662-.8135,1.5186-1.6831,1.5186,0,0-.1187-.0029-.1782-.0088Z"/><path class="f" d="M162.631,327.9784c.0545,0,.1097,.0028,.1651,.0086l.3536,.0369c.861,.0898,1.4885,.8635,1.3986,1.7245l-1.248,11.9588c-.0837,.8022-.7541,1.4072-1.5593,1.4072-.0546,0-.1097-.0028-.1652-.0086l-.3536-.0369c-.861-.0899-1.4884-.8635-1.3986-1.7245l1.248-11.9588c.0837-.8022,.7542-1.4072,1.5594-1.4072m0-.25c-.9204,0-1.7104,.6957-1.8081,1.6313l-1.248,11.9588c-.1043,.9998,.6215,1.8948,1.6213,1.9991l.3536,.0369c.0642,.0067,.1281,.0099,.1912,.0099,.9203,0,1.7103-.6957,1.808-1.6312l1.248-11.9588c.1043-.9998-.6216-1.8948-1.6213-1.9991l-.3536-.0369c-.0641-.0067-.128-.0099-.191-.0099h0Z"/></g><g><path d="M147.1351,340.979c-.1182,0-.2373-.0127-.354-.0371l-.3477-.0732c-.9146-.1934-1.501-1.0947-1.3076-2.0098l2.4912-11.7627c.165-.7793,.8618-1.3447,1.6567-1.3447,.1182,0,.2368,.0127,.353,.0371l.3477,.0742c.4429,.0938,.8228,.3545,1.0698,.7344,.2466,.3789,.3311,.832,.2373,1.2744l-2.4907,11.7627c-.1655,.7793-.8618,1.3447-1.6558,1.3447h0Z"/><path class="f" d="M149.2736,325.8769c.1092,0,.2192,.0116,.3271,.0344l.3478,.0736c.847,.1794,1.3901,1.0143,1.2108,1.8613l-2.491,11.7629c-.1528,.7215-.798,1.2452-1.5341,1.2452-.1092,0-.2192-.0116-.3271-.0344l-.3478-.0737c-.4103-.0869-.7621-.3284-.9908-.6799-.2287-.3516-.3068-.7711-.2199-1.1813l2.491-11.7629c.1528-.7214,.798-1.2451,1.5341-1.2451m0-.25c-.8416,0-1.5974,.587-1.7787,1.4434l-2.491,11.7629c-.2083,.9833,.4202,1.9493,1.4035,2.1576l.3478,.0737c.1271,.0269,.254,.0399,.3789,.0399,.8416,0,1.5974-.587,1.7787-1.4434l2.491-11.7629c.2083-.9834-.4202-1.9494-1.4035-2.1577l-.3478-.0736c-.1271-.0269-.254-.0399-.3789-.0399h0Z"/></g><g><path d="M132.8426,337.2046c-.1772,0-.353-.0273-.5229-.083l-.3384-.1094c-.8887-.2881-1.3779-1.2461-1.0898-2.1357l3.7065-11.4375c.2271-.7012,.875-1.1729,1.6123-1.1729,.1768,0,.353,.0273,.5229,.083l.3379,.1094c.8892,.2891,1.3784,1.2471,1.0903,2.1357l-3.707,11.4385c-.2271,.7012-.875,1.1719-1.6118,1.1719Z"/><path class="f" d="M136.2101,322.391c.1638,0,.3268,.0259,.4844,.077l.3381,.1095c.399,.1293,.7237,.4062,.9144,.7797,.1907,.3735,.2245,.799,.0952,1.1979l-3.7066,11.4382c-.2106,.6499-.8107,1.0865-1.4932,1.0865-.1638,0-.3268-.0259-.4844-.0769l-.3382-.1096c-.8235-.2669-1.2764-1.1541-1.0096-1.9776l3.7066-11.4382c.2106-.6499,.8107-1.0865,1.4932-1.0865m0-.25c-.7678,0-1.4816,.4896-1.731,1.2594l-3.7066,11.4382c-.3099,.9562,.2141,1.9826,1.1703,2.2925l.3382,.1096c.1864,.0604,.3755,.0891,.5615,.0891,.7678,0,1.4816-.4896,1.731-1.2595l3.7067-11.4382c.3099-.9562-.2141-1.9826-1.1703-2.2925l-.3382-.1096c-.1864-.0604-.3755-.0891-.5615-.0891h0Z"/></g><g><path d="M119.0233,331.9575c-.2373,0-.4683-.0488-.687-.1465l-.3247-.1445c-.854-.3799-1.2402-1.3828-.8608-2.2373l4.8818-10.9883c.2715-.6113,.8799-1.0068,1.5498-1.0068,.2373,0,.4683,.0488,.687,.1465l.3252,.1445c.854,.3799,1.2402,1.3828,.8608,2.2373l-4.8818,10.9873c-.272,.6123-.8804,1.0078-1.5498,1.0078h-.0005Z"/><path class="f" d="M123.5824,317.559c.2197,0,.4338,.0457,.6365,.1357l.3249,.1443c.3832,.1703,.6772,.4796,.8279,.871,.1506,.3914,.1398,.8181-.0305,1.2013l-4.8817,10.9882c-.2518,.5668-.8154,.933-1.4358,.933-.2197,0-.4338-.0457-.6365-.1357l-.3249-.1443c-.7911-.3516-1.1489-1.2812-.7974-2.0723l4.8817-10.9882c.2518-.5668,.8155-.933,1.4359-.933m0-.25c-.6974,0-1.3629,.4031-1.6643,1.0815l-4.8817,10.9882c-.4081,.9186,.0057,1.9941,.9243,2.4023l.3249,.1443c.2402,.1067,.4911,.1572,.738,.1572,.6974,0,1.3628-.403,1.6642-1.0815l4.8817-10.9882c.4081-.9186-.0057-1.9941-.9243-2.4022l-.3249-.1443c-.2401-.1067-.4911-.1572-.738-.1572h0Z"/></g><g><path d="M105.8294,325.2945c-.2949,0-.5874-.0781-.8447-.2266l-.3076-.1777c-.8101-.4668-1.0894-1.5049-.6226-2.3145l6.0034-10.418c.3018-.5234,.8647-.8486,1.4697-.8486,.2954,0,.5874,.0781,.8447,.2266l.3081,.1777c.3926,.2256,.6733,.5908,.791,1.0283s.0576,.8936-.1685,1.2861l-6.0034,10.418c-.3018,.5234-.8647,.8486-1.4697,.8486h-.0005Z"/><path class="f" d="M111.528,311.4337c.2733,0,.5438,.0726,.7822,.21l.308,.1775c.7501,.4323,1.0087,1.3942,.5764,2.1443l-6.0032,10.4178c-.2795,.4851-.8015,.7865-1.3621,.7865-.2733,0-.5438-.0726-.7822-.21l-.308-.1775c-.3633-.2094-.6234-.5477-.7323-.9528s-.0535-.8282,.1559-1.1915l6.0033-10.4178c.2795-.4851,.8014-.7865,1.362-.7865m0-.25c-.6296,0-1.2417,.327-1.5786,.9117l-6.0033,10.4178c-.5019,.8709-.2027,1.9838,.6682,2.4857l.308,.1775c.2863,.165,.5988,.2434,.907,.2434,.6296,0,1.2418-.327,1.5787-.9117l6.0032-10.4178c.5019-.871,.2027-1.9838-.6682-2.4857l-.308-.1775c-.2863-.165-.5988-.2434-.907-.2434h0Z"/></g><g><path d="M93.4051,317.2896c-.3589,0-.7026-.1113-.9941-.3232l-.2881-.209c-.7559-.5479-.9253-1.6104-.377-2.3672l7.0591-9.7334c.3179-.4375,.8315-.6992,1.3735-.6992,.3589,0,.7026,.1113,.9941,.3232l.2881,.209c.7559,.5479,.9253,1.6104,.377,2.3672l-7.0591,9.7334c-.3179,.4375-.8315,.6992-1.3735,.6992h0Z"/><path class="f" d="M100.179,304.0823c.3322,0,.6503,.1035,.9202,.2992l.2878,.2087c.3395,.2462,.5628,.6099,.6288,1.024,.066,.4141-.0333,.8292-.2795,1.1686l-7.0591,9.7335c-.2944,.406-.7701,.6484-1.2725,.6484-.3322,0-.6503-.1035-.9202-.2992l-.2878-.2087c-.3395-.2462-.5628-.6099-.6287-1.024-.066-.4142,.0333-.8292,.2795-1.1687l7.0591-9.7333c.2945-.4061,.7702-.6484,1.2725-.6484m0-.25c-.5634,0-1.1188,.2607-1.4749,.7516l-7.0591,9.7333c-.5901,.8137-.4089,1.9518,.4048,2.5419l.2878,.2087c.3228,.2341,.6967,.3468,1.067,.3468,.5634,0,1.1188-.2607,1.4749-.7516l7.0591-9.7335c.5901-.8137,.4089-1.9517-.4048-2.5419l-.2878-.2087c-.3228-.2341-.6966-.3468-1.067-.3468h0Z"/></g><g><path d="M81.8851,308.0298c-.4189,0-.8208-.1543-1.1323-.4336l-.2646-.2383c-.6948-.625-.752-1.6982-.1274-2.3936l8.0376-8.9424c.3213-.3574,.7808-.5625,1.2612-.5625,.4189,0,.8213,.1543,1.1328,.4346l.2642,.2373c.6948,.626,.7524,1.6992,.1279,2.3936l-8.0376,8.9424c-.3213,.3574-.7812,.5625-1.2617,.5625h0Z"/><path class="f" d="M89.6597,295.585c.3878,0,.7603,.1429,1.049,.4023l.2644,.2377c.3119,.2803,.496,.6653,.5183,1.0841,.0223,.4188-.1198,.8212-.4001,1.1331l-8.0377,8.9424c-.2974,.3307-.7231,.5205-1.1683,.5205-.3878,0-.7603-.1429-1.049-.4025l-.2644-.2375c-.6439-.5787-.6968-1.5734-.1182-2.2173l8.0377-8.9424c.2974-.3308,.7232-.5205,1.1683-.5205m0-.25c-.4984,0-.9948,.2035-1.3542,.6034l-8.0377,8.9424c-.6719,.7476-.6106,1.8984,.137,2.5703l.2644,.2376c.3477,.3126,.7827,.4665,1.2161,.4665,.4985,0,.9948-.2035,1.3542-.6034l8.0377-8.9424c.6719-.7476,.6107-1.8984-.137-2.5703l-.2644-.2377c-.3477-.3125-.7827-.4664-1.2161-.4664h0Z"/></g><g><path d="M71.3968,297.6177c-.4795,0-.9385-.2041-1.2593-.5605l-.2383-.2637c-.3032-.3359-.4575-.7695-.4341-1.2227,.0234-.4521,.2217-.8682,.5576-1.1709l8.9277-8.0537c.3125-.2812,.7153-.4365,1.1353-.4365,.4795,0,.9385,.2041,1.2593,.5605l.2383,.2637c.3032,.3359,.457,.7695,.4336,1.2227-.0229,.4521-.2212,.8682-.5571,1.1709l-8.9282,8.0537c-.312,.2812-.7153,.4365-1.1348,.4365h0Z"/><path class="f" d="M80.0857,286.0349c.4441,0,.8693,.189,1.1664,.5184l.2381,.264c.2809,.3115,.4238,.7136,.4022,1.1324-.0215,.4188-.2049,.8042-.5163,1.0851l-8.9282,8.0535c-.2889,.2607-.6622,.4042-1.051,.4042-.4441,0-.8692-.189-1.1664-.5184l-.2381-.264c-.5799-.6429-.5287-1.6376,.1141-2.2175l8.9282-8.0535c.2889-.2606,.6622-.4042,1.051-.4042m0-.25c-.4345,0-.8704,.1546-1.2184,.4686l-8.9282,8.0535c-.7464,.6733-.8057,1.8241-.1324,2.5705l.2381,.264c.3593,.3984,.8547,.601,1.3521,.601,.4345,0,.8704-.1547,1.2185-.4686l8.9282-8.0535c.7464-.6732,.8057-1.8241,.1324-2.5705l-.2381-.264c-.3593-.3984-.8548-.601-1.3521-.601h0Z"/></g><g><path d="M62.054,286.1655c-.541,0-1.0542-.2607-1.3721-.6973l-.2095-.2871c-.5498-.7559-.3828-1.8184,.373-2.3691l9.7212-7.0762c.2915-.2119,.6357-.3242,.9956-.3242,.541,0,1.0537,.2607,1.3721,.6973l.209,.2871c.5503,.7559,.3833,1.8184-.3726,2.3691l-9.7212,7.0762c-.2915,.2119-.6357,.3242-.9956,.3242Z"/><path class="f" d="M71.5625,275.5365c.5013,0,.9763,.2415,1.2708,.6462l.2092,.2874c.2468,.3391,.3469,.7539,.2816,1.1682-.0652,.4143-.2878,.7784-.627,1.0252l-9.7209,7.0762c-.2703,.1968-.5894,.3008-.9225,.3008-.5012,0-.9763-.2415-1.2709-.6462l-.2092-.2874c-.2468-.3391-.3469-.754-.2816-1.1682,.0652-.4143,.2878-.7784,.627-1.0252l9.7209-7.0762c.2704-.1968,.5894-.3008,.9225-.3008m0-.25c-.3715,0-.7463,.1133-1.0696,.3487l-9.7209,7.0763c-.8127,.5916-.9919,1.73-.4003,2.5426l.2092,.2874c.3562,.4893,.9108,.749,1.473,.749,.3715,0,.7463-.1133,1.0696-.3487l9.7209-7.0763c.8127-.5916,.9919-1.7299,.4003-2.5426l-.2092-.2874c-.3562-.4893-.9107-.749-1.473-.749h0Z"/></g><g><path d="M53.9579,273.8003c-.604,0-1.167-.3252-1.4688-.8467l-.1777-.3076c-.4683-.8086-.1909-1.8486,.6177-2.3164l10.4072-6.0215c.2583-.1494,.5508-.2285,.8472-.2285,.604,0,1.167,.3242,1.4688,.8467l.1782,.3076c.4683,.8086,.1909,1.8477-.6182,2.3164l-10.4072,6.0215c-.2578,.1494-.5508,.2285-.8467,.2285h-.0005Z"/><path class="f" d="M64.1837,264.205c.5594,0,1.0808,.3004,1.3607,.784l.178,.3077c.21,.363,.2661,.7861,.158,1.1912-.1082,.4052-.3676,.744-.7306,.954l-10.4072,6.0217c-.239,.1383-.5104,.2114-.7847,.2114-.5594,0-1.0808-.3004-1.3607-.784l-.178-.3077c-.21-.363-.2661-.7861-.158-1.1913,.1082-.4052,.3677-.744,.7307-.954l10.4072-6.0216c.239-.1383,.5104-.2114,.7847-.2114m0-.25c-.3094,0-.6228,.0789-.9099,.245l-10.4072,6.0216c-.8701,.5034-1.1673,1.6168-.6639,2.4869l.178,.3077c.3373,.583,.9487,.9088,1.577,.9088,.3094,0,.6228-.0789,.9099-.245l10.4072-6.0217c.8701-.5034,1.1672-1.6168,.6638-2.4868l-.178-.3077c-.3373-.583-.9487-.9088-1.577-.9088h0Z"/></g><g><path d="M47.1976,260.6568c-.6685,0-1.2759-.3945-1.5483-1.0049l-.145-.3252c-.1846-.4141-.1973-.874-.0356-1.2969,.1621-.4229,.479-.7568,.8921-.9414l10.9795-4.9014c.2197-.0977,.4517-.1475,.6899-.1475,.6689,0,1.2769,.3945,1.5493,1.0039l.1445,.3252c.1846,.4141,.1973,.874,.0356,1.2969-.1621,.4229-.479,.7568-.8921,.9414l-10.9795,4.9014c-.2197,.0986-.4521,.1484-.6904,.1484Z"/><path class="f" d="M58.0305,252.1644c.6192,0,1.1824,.3652,1.4347,.9305l.1449,.3246c.3529,.7905-.0031,1.7208-.7936,2.0737l-10.9796,4.9011c-.2034,.0908-.4183,.1368-.6389,.1368-.6192,0-1.1824-.3652-1.4348-.9305l-.1449-.3247c-.1709-.3829-.1825-.8096-.0326-1.2012s.4434-.7015,.8263-.8724l10.9795-4.9011c.2034-.0908,.4184-.1368,.639-.1368m0-.25c-.2479,0-.4998,.0509-.7408,.1585l-10.9795,4.9011c-.9179,.4097-1.3298,1.486-.9201,2.4039l.1449,.3246c.3021,.6768,.9667,1.0786,1.663,1.0786,.2479,0,.4998-.0509,.7408-.1585l10.9796-4.9011c.9178-.4098,1.3298-1.486,.92-2.4039l-.1449-.3246c-.3021-.6768-.9668-1.0786-1.663-1.0786h0Z"/></g><g><path d="M41.848,246.8775c-.7358,0-1.3833-.4697-1.6118-1.1699l-.1094-.3379c-.1406-.4307-.105-.8896,.1001-1.2939,.2051-.4033,.5552-.7031,.9854-.8428l11.4316-3.7266c.1714-.0557,.3481-.084,.5264-.084,.7354,0,1.3828,.4697,1.6108,1.1699l.1104,.3379c.2896,.8887-.1978,1.8477-1.0859,2.1367l-11.4316,3.7266c-.1709,.0557-.3481,.084-.5259,.084h0Z"/><path class="f" d="M53.1698,239.5467c.6813,0,1.2811,.4355,1.4924,1.0839l.1102,.338c.13,.3987,.0969,.8242-.0931,1.1981-.1901,.3738-.5143,.6513-.913,.7813l-11.4316,3.7268c-.1584,.0516-.3223,.0778-.487,.0778-.6813,0-1.281-.4356-1.4924-1.0839l-.1102-.3381c-.13-.3987-.0969-.8242,.0931-1.1981,.19-.3738,.5143-.6513,.913-.7813l11.4315-3.7268c.1584-.0516,.3223-.0778,.487-.0778m0-.25c-.187,0-.377,.029-.5645,.0901l-11.4316,3.7268c-.9557,.3116-1.4778,1.3389-1.1663,2.2946l.1102,.338c.2505,.7682,.9635,1.2564,1.73,1.2564,.187,0,.3771-.0291,.5645-.0901l11.4316-3.7268c.9557-.3115,1.4778-1.3389,1.1663-2.2946l-.1102-.338c-.2505-.7682-.9636-1.2564-1.7301-1.2564h0Z"/></g><g><path d="M37.9671,232.6148c-.7935,0-1.4902-.5635-1.6562-1.3408l-.0742-.3477c-.1948-.9141,.3896-1.8164,1.3032-2.0117l11.7588-2.5117c.1177-.0244,.2373-.0371,.356-.0371,.7935,0,1.4897,.5635,1.6558,1.3408l.0747,.3477c.1948,.9141-.3896,1.8164-1.3037,2.0117l-11.7583,2.5117c-.1177,.0244-.2373,.0371-.356,.0371h0Z"/><path class="f" d="M49.6547,226.4902c.7348,0,1.3797,.5225,1.5335,1.2424l.0743,.3477c.0876,.4101,.0103,.8298-.2178,1.1818-.2281,.3519-.5795,.594-.9897,.6816l-11.7585,2.5117c-.1087,.0233-.2197,.035-.3297,.035-.7349,0-1.3799-.5225-1.5336-1.2425l-.0743-.3477c-.0876-.4101-.0103-.8298,.2178-1.1818,.2281-.3519,.5795-.594,.9897-.6816l11.7585-2.5117c.1088-.0233,.2198-.035,.3298-.035m0-.25c-.126,0-.2538,.0131-.3821,.0405l-11.7585,2.5117c-.983,.21-1.6097,1.1771-1.3997,2.1601l.0743,.3477c.1826,.8549,.9379,1.4402,1.7781,1.4402,.126,0,.2538-.0131,.382-.0405l11.7585-2.5118c.983-.21,1.6097-1.1771,1.3997-2.1601l-.0743-.3477c-.1826-.8548-.9378-1.4402-1.778-1.4402h0Z"/></g><g><path d="M35.598,218.0259c-.8677,0-1.5913-.6523-1.6826-1.5156l-.0376-.3545c-.0479-.4502,.0825-.8916,.3672-1.2441,.2842-.3525,.689-.5723,1.1392-.6201l11.9565-1.2695c.061-.0059,.1216-.0098,.1816-.0098,.8677,0,1.5913,.6523,1.6831,1.5176l.0371,.3525c.0483,.4502-.082,.8926-.3667,1.2441-.2847,.3525-.6895,.5732-1.1396,.6211l-11.9565,1.2686c-.061,.0059-.1216,.0098-.1816,.0098Z"/><path class="f" d="M47.522,213.1377c.8038,0,1.4741,.6038,1.5591,1.4045l.0375,.3536c.0914,.8608-.5346,1.6356-1.3955,1.727l-11.9567,1.2691c-.0565,.006-.1124,.0089-.168,.0089-.8038,0-1.474-.6038-1.559-1.4044l-.0375-.3536c-.0443-.417,.0765-.8263,.3401-1.1525,.2636-.3262,.6384-.5302,1.0554-.5745l11.9566-1.2692c.0565-.006,.1124-.0089,.1679-.0089m0-.25c-.0641,0-.129,.0034-.1943,.0103l-11.9566,1.2692c-.9996,.1061-1.7239,1.0024-1.6177,2.002l.0375,.3535c.0991,.9342,.8887,1.6281,1.8076,1.6281,.0643,0,.129-.0034,.1944-.0103l11.9566-1.2691c.9996-.1061,1.7239-1.0024,1.6177-2.002l-.0375-.3535c-.0992-.9343-.8888-1.6281-1.8077-1.6281h0Z"/></g><g><path d="M47.2713,189.7407l-11.96-1.2441c-.4502-.0469-.855-.2666-1.1401-.6172-.2852-.3516-.4165-.7939-.3696-1.2441l.0366-.3535c.0898-.8662,.8135-1.5195,1.6826-1.5195,.0591,0,.1187,.0029,.1782,.0088l11.9595,1.2441c.4502,.0469,.8555,.2666,1.1406,.6172,.2852,.3516,.4165,.793,.3696,1.2441l-.0366,.3535c-.0898,.8662-.8135,1.5195-1.6826,1.5195,0,0-.1187-.0029-.1782-.0088Z"/><path class="f" d="M35.5218,184.887c.0543,0,.1094,.0028,.1646,.0085l11.9592,1.244c.4171,.0433,.7924,.2466,1.0566,.5722s.3859,.7347,.3425,1.1519l-.0367,.3536c-.0835,.8026-.754,1.4078-1.5595,1.4078-.0544,0-.1093-.0028-.1646-.0085l-11.9592-1.244c-.8611-.0896-1.4888-.863-1.3992-1.7241l.0368-.3536c.0835-.8026,.7539-1.4077,1.5594-1.4077m0-.25c-.9207,0-1.7107,.696-1.808,1.6318l-.0368,.3536c-.1039,.9998,.6223,1.8946,1.622,1.9986l11.9592,1.244c.064,.0067,.1275,.0099,.1904,.0099,.9207,0,1.7108-.6961,1.8082-1.6319l.0367-.3536c.104-.9998-.6222-1.8946-1.6219-1.9985l-11.9592-1.244c-.064-.0067-.1276-.0099-.1906-.0099h0Z"/></g><g><path d="M49.5082,176.3863c-.1177,0-.2363-.0127-.3525-.0371l-11.7637-2.4873c-.9141-.1934-1.501-1.0947-1.3081-2.0098l.0737-.3467c.165-.7803,.8618-1.3457,1.6567-1.3457,.1177,0,.2363,.0127,.3525,.0371l11.7637,2.4873c.4429,.0938,.8232,.3545,1.0698,.7344,.2471,.3789,.3315,.832,.2383,1.2754l-.0737,.3467c-.165,.7803-.8618,1.3457-1.6567,1.3457h0Z"/><path class="f" d="M37.8144,170.2853c.1089,0,.2188,.0115,.3265,.0343l11.7637,2.4869c.847,.1791,1.3904,1.0139,1.2114,1.8609l-.0736,.3478c-.1525,.7218-.7978,1.2457-1.5342,1.2457-.109,0-.2189-.0115-.3266-.0343l-11.7637-2.4869c-.847-.1791-1.3904-1.0139-1.2114-1.8609l.0735-.3478c.1526-.7218,.7979-1.2457,1.5344-1.2457m0-.25c-.8419,0-1.5978,.5874-1.7789,1.444l-.0735,.3478c-.2079,.9835,.4208,1.9492,1.4043,2.1572l11.7637,2.4869c.1269,.0268,.2535,.0397,.3783,.0397,.8418,0,1.5977-.5874,1.7788-1.444l.0735-.3478c.2079-.9835-.4208-1.9492-1.4042-2.1572l-11.7637-2.4869c-.1269-.0268-.2535-.0397-.3782-.0397h0Z"/></g><g><path d="M52.952,163.3101c-.1768,0-.3525-.0273-.5225-.083l-11.4395-3.7021c-.8892-.2881-1.3784-1.2451-1.0903-2.1348l.1094-.3389c.2271-.7012,.875-1.1729,1.6123-1.1729,.1768,0,.3521,.0273,.522,.083l11.4395,3.7021c.8896,.2881,1.3789,1.2461,1.0908,2.1357l-.1094,.3379c-.2271,.7012-.875,1.1729-1.6123,1.1729h0Z"/><path class="f" d="M41.6213,156.0033c.1636,0,.3265,.0258,.4839,.0768l11.4394,3.7027c.399,.1292,.7238,.4059,.9146,.7794s.2248,.7989,.0956,1.1979l-.1095,.3383c-.2104,.6502-.8106,1.087-1.4934,1.087-.1636,0-.3264-.0258-.4839-.0768l-11.4394-3.7027c-.8236-.2666-1.2768-1.1536-1.0103-1.9773l.1095-.3382c.2104-.6502,.8106-1.087,1.4933-1.087m0-.25c-.768,0-1.4819,.4899-1.7312,1.2601l-.1095,.3382c-.3095,.9564,.2148,1.9825,1.1711,2.2921l11.4394,3.7027c.1862,.0602,.3752,.0889,.5609,.0889,.7681,0,1.482-.4899,1.7313-1.2601l.1095-.3383c.3095-.9563-.2148-1.9825-1.1711-2.2921l-11.4394-3.7027c-.1862-.0602-.3752-.0889-.5609-.0889h0Z"/></g><g><path d="M57.7435,150.6665c-.2368,0-.4683-.0498-.6865-.1465l-10.9897-4.8779c-.854-.3799-1.2407-1.3828-.8618-2.2373l.144-.3242c.272-.6123,.8809-1.0078,1.5513-1.0078,.2368,0,.4678,.0488,.686,.1455l10.9897,4.8779c.854,.3799,1.2407,1.3828,.8618,2.2373l-.1445,.3252c-.272,.6123-.8804,1.0078-1.5503,1.0078h0Z"/><path class="f" d="M46.9,142.1973c.2195,0,.4334,.0455,.6359,.1354l10.9898,4.8779c.3834,.1701,.6775,.4793,.8282,.8707,.1508,.3914,.1401,.818-.0301,1.2013l-.1442,.325c-.2517,.5671-.8154,.9335-1.436,.9335-.2195,0-.4334-.0455-.6359-.1354l-10.9898-4.8779c-.3833-.1701-.6774-.4793-.8282-.8707s-.1401-.818,.0301-1.2013l.1442-.325c.2517-.5671,.8154-.9335,1.436-.9335m0-.25c-.6977,0-1.3633,.4033-1.6646,1.0821l-.1442,.325c-.4078,.9188,.0064,1.9941,.9252,2.4019l10.9898,4.8779c.2399,.1065,.4907,.1569,.7374,.1569,.6978,0,1.3633-.4033,1.6646-1.0821l.1442-.325c.4078-.9188-.0064-1.9941-.9252-2.4019l-10.9898-4.8779c-.2399-.1065-.4907-.1569-.7374-.1569h0Z"/></g><g><path d="M63.8314,138.5923c-.2954,0-.5869-.0781-.8442-.2266l-10.4199-6c-.3926-.2256-.6733-.5908-.791-1.0283-.1182-.4365-.0586-.8936,.1675-1.2861l.1777-.3076c.3018-.5244,.8652-.8496,1.4712-.8496,.2949,0,.5864,.0781,.8433,.2256l10.4199,6c.8096,.4668,1.0894,1.5049,.623,2.3145l-.1772,.3086c-.3013,.5234-.8647,.8496-1.4702,.8496h0Z"/><path class="f" d="M53.5918,129.0186c.2731,0,.5435,.0726,.7817,.2098l10.4199,5.9997c.7502,.4319,1.0092,1.3938,.5771,2.144l-.1774,.308c-.2795,.4854-.8015,.787-1.3623,.787-.2731,0-.5435-.0726-.7817-.2098l-10.4199-5.9997c-.3635-.2092-.6237-.5475-.7327-.9525-.1091-.405-.0538-.8282,.1554-1.1916l.1775-.3081c.2795-.4854,.8015-.7869,1.3622-.7869m0-.25c-.6298,0-1.2421,.3272-1.5789,.9122l-.1774,.3081c-.5016,.8711-.202,1.9839,.6691,2.4855l10.4199,5.9997c.2861,.1648,.5984,.2431,.9065,.2431,.6298,0,1.2422-.3273,1.579-.9122l.1774-.308c.5016-.8711,.202-1.9839-.6691-2.4855l-10.4199-5.9997c-.2861-.1648-.5984-.2431-.9065-.2431h0Z"/></g><g><path d="M71.1478,127.2202c-.3589,0-.7021-.1113-.9937-.3232l-9.7354-7.0557c-.7563-.5479-.9263-1.6104-.3779-2.3672l.2085-.2871c.3179-.4385,.8315-.7012,1.3745-.7012,.3584,0,.7017,.1123,.9927,.3232l9.7358,7.0557c.3667,.2656,.6079,.6582,.6792,1.1055s-.0356,.8955-.3013,1.2617l-.2085,.2881c-.3179,.4385-.8315,.7002-1.374,.7002h0Z"/><path class="f" d="M61.6234,116.6113c.332,0,.6501,.1034,.9199,.299l9.7358,7.0558c.3395,.2461,.563,.6097,.6291,1.0238s-.033,.8292-.2791,1.1688l-.2087,.2879c-.2944,.4062-.7702,.6489-1.2728,.6489-.332,0-.65-.1034-.9198-.299l-9.7358-7.0558c-.3396-.2461-.563-.6097-.6291-1.0238s.033-.8292,.2791-1.1688l.2086-.2878c.2945-.4063,.7703-.6489,1.2728-.6489m0-.25c-.5636,0-1.1191,.2609-1.4752,.7521l-.2086,.2879c-.5898,.8139-.4082,1.9519,.4057,2.5417l9.7358,7.0558c.3226,.2338,.6964,.3465,1.0665,.3465,.5636,0,1.1192-.2609,1.4752-.7522l.2086-.2878c.5899-.8139,.4083-1.9519-.4057-2.5417l-9.7358-7.0558c-.3226-.2338-.6964-.3465-1.0666-.3465h0Z"/></g><g><path d="M79.6136,116.6753c-.4185,0-.8208-.1543-1.1323-.4336l-8.9453-8.0342c-.6953-.625-.7529-1.6992-.1284-2.3936l.2378-.2646c.3213-.3584,.7808-.5625,1.2617-.5625,.4185,0,.8203,.1533,1.1323,.4336l8.9448,8.0342c.3369,.3027,.5356,.7188,.5601,1.1709,.0239,.4512-.1294,.8857-.4316,1.2227l-.2378,.2656c-.3208,.3564-.7808,.5615-1.2612,.5615h0Z"/><path class="f" d="M70.907,105.1113c.3876,0,.7599,.1428,1.0486,.402l8.9452,8.0346c.312,.2803,.4962,.6652,.5186,1.084s-.1195,.8212-.3997,1.1332l-.2375,.2645c-.2974,.3311-.7233,.5209-1.1687,.5209-.3875,0-.7599-.1428-1.0485-.402l-8.9452-8.0346c-.312-.2803-.4962-.6652-.5186-1.084s.1195-.8212,.3997-1.1332l.2375-.2645c.2974-.3311,.7233-.5209,1.1686-.5209m0-.25c-.4987,0-.9952,.2036-1.3546,.6038l-.2375,.2645c-.6717,.7478-.61,1.8986,.1378,2.5703l8.9452,8.0346c.3476,.3123,.7824,.466,1.2156,.466,.4987,0,.9952-.2037,1.3547-.6039l.2375-.2645c.6717-.7478,.61-1.8986-.1378-2.5703l-8.9452-8.0346c-.3476-.3123-.7825-.466-1.2156-.466h0Z"/></g><g><path d="M89.1356,107.0728c-.4795,0-.9385-.2041-1.2593-.5596l-8.0566-8.9248c-.3032-.3359-.4575-.7705-.4346-1.2227,.0234-.4521,.2212-.8682,.5571-1.1709l.2642-.2383c.312-.2822,.7153-.4375,1.1353-.4375,.479,0,.938,.2041,1.2588,.5596l8.0562,8.9258c.3037,.3359,.458,.7695,.4346,1.2217-.0229,.4521-.2207,.8682-.5571,1.1719l-.2637,.2383c-.312,.2812-.7148,.4365-1.1348,.4365h0Z"/><path class="f" d="M81.3413,94.6444c.4438,0,.8688,.1888,1.166,.5181l8.0565,8.9254c.5801,.6427,.5292,1.6375-.1134,2.2175l-.264,.2382c-.289,.2609-.6624,.4046-1.0514,.4046-.4438,0-.8688-.1888-1.166-.518l-8.0565-8.9254c-.5801-.6427-.5292-1.6375,.1134-2.2175l.264-.2382c.289-.2609,.6624-.4046,1.0514-.4046m0-.25c-.4348,0-.8708,.1548-1.2189,.469l-.2639,.2382c-.7462,.6735-.8051,1.8244-.1315,2.5706l8.0565,8.9254c.3593,.398,.8546,.6005,1.3516,.6005,.4348,0,.8708-.1548,1.2189-.469l.2639-.2382c.7462-.6735,.8051-1.8244,.1315-2.5706l-8.0565-8.9254c-.3593-.398-.8546-.6005-1.3516-.6005h0Z"/></g><g><path d="M99.6078,98.5181c-.5405,0-1.0537-.2598-1.3716-.6963l-7.0796-9.7188c-.2666-.3662-.3745-.8145-.3047-1.2617,.0703-.4473,.3105-.8408,.6768-1.1074l.2871-.208c.2925-.2129,.6372-.3252,.9971-.3252,.5405,0,1.0532,.2598,1.3711,.6963l7.0801,9.7188c.5498,.7549,.3828,1.8174-.3726,2.3691l-.2871,.209c-.292,.2119-.6362,.3242-.9961,.3242h-.0005Z"/><path class="f" d="M92.8127,85.3253c.501,0,.976,.2414,1.2705,.6457l7.0796,9.7185c.5098,.6998,.3552,1.6838-.3445,2.1935l-.2874,.2093c-.2704,.197-.5896,.3011-.923,.3011-.501,0-.976-.2414-1.2705-.6457l-7.0797-9.7185c-.5098-.6997-.3552-1.6837,.3445-2.1935l.2874-.2093c.2704-.197,.5896-.3011,.923-.3011m0-.25c-.3717,0-.7468,.1135-1.0702,.3491l-.2874,.2093c-.8124,.5919-.9913,1.7303-.3995,2.5428l7.0797,9.7185c.3563,.489,.9105,.7485,1.4726,.7485,.3717,0,.7468-.1135,1.0702-.3491l.2874-.2093c.8124-.5919,.9913-1.7303,.3994-2.5428l-7.0796-9.7185c-.3563-.489-.9106-.7485-1.4726-.7485h0Z"/></g><g><path d="M110.9168,91.105c-.604,0-1.1665-.3242-1.4688-.8457l-6.0249-10.4053c-.2271-.3916-.2881-.8486-.1714-1.2861s.397-.8037,.7886-1.0303l.3076-.1777c.2583-.1494,.5513-.2285,.8477-.2285,.604,0,1.1665,.3242,1.4683,.8457l6.0254,10.4053c.2271,.3916,.2876,.8486,.1714,1.2861-.1167,.4375-.397,.8027-.7886,1.0293l-.3081,.1787c-.2578,.1494-.5508,.2285-.8472,.2285h0Z"/><path class="f" d="M105.1957,77.256c.5592,0,1.0805,.3002,1.3604,.7836l6.0253,10.4052c.2101,.3629,.2664,.7859,.1584,1.1912-.108,.4053-.3674,.7441-.7303,.9543l-.3077,.1782c-.2391,.1385-.5106,.2117-.7851,.2117-.5593,0-1.0806-.3003-1.3604-.7836l-6.0253-10.4052c-.2101-.3629-.2664-.7859-.1583-1.1912s.3674-.7441,.7303-.9543l.3076-.1782c.2391-.1384,.5106-.2116,.7851-.2116m0-.25c-.3096,0-.6232,.079-.9104,.2453l-.3076,.1782c-.8699,.5037-1.1667,1.6172-.663,2.4871l6.0252,10.4052c.3374,.5827,.9487,.9083,1.5768,.9083,.3096,0,.6232-.079,.9103-.2453l.3077-.1782c.8699-.5037,1.1667-1.6172,.663-2.4871l-6.0252-10.4052c-.3374-.5827-.9486-.9083-1.5767-.9083h0Z"/></g><g><path d="M122.9373,84.9146c-.6685,0-1.2759-.3945-1.5483-1.0049l-4.9048-10.9775c-.3813-.8535,.0024-1.8584,.8555-2.2393l.3247-.1445c.2202-.0986,.4526-.1484,.6909-.1484,.6685,0,1.2759,.3945,1.5483,1.0039l4.9048,10.9775c.3813,.8535-.0029,1.8584-.856,2.2393l-.3252,.1455c-.2192,.0986-.4512,.1484-.6899,.1484Z"/><path class="f" d="M118.355,70.525c.619,0,1.1821,.3651,1.4345,.9301l4.9048,10.9778c.3531,.7904-.0026,1.7208-.793,2.0739l-.3246,.145c-.2035,.0909-.4186,.137-.6395,.137-.619,0-1.1821-.3651-1.4344-.93l-4.9048-10.9778c-.3531-.7904,.0026-1.7208,.793-2.074l.3246-.145c.2035-.0909,.4186-.137,.6394-.137m0-.25c-.2482,0-.5002,.051-.7414,.1588l-.3246,.1451c-.9177,.41-1.3293,1.4864-.9193,2.4042l4.9048,10.9778c.3022,.6765,.9667,1.078,1.6627,1.078,.2482,0,.5002-.051,.7415-.1588l.3246-.145c.9177-.41,1.3293-1.4865,.9193-2.4042l-4.9048-10.9778c-.3022-.6765-.9667-1.0781-1.6628-1.0781h0Z"/></g><g><path d="M135.5384,80.0132c-.7354,0-1.3823-.4707-1.6108-1.1699l-3.731-11.4307c-.1401-.4297-.105-.8896,.1001-1.293,.2051-.4043,.5552-.7041,.9854-.8438l.3379-.1104c.1714-.0557,.3481-.084,.5264-.084,.7354,0,1.3828,.4697,1.6113,1.1699l3.731,11.4297c.2896,.8887-.1973,1.8477-1.0854,2.1367l-.3379,.1104c-.1714,.0566-.3486,.085-.5269,.085h0Z"/><path class="f" d="M132.1465,65.2063c.681,0,1.2807,.4354,1.4922,1.0834l3.7307,11.4303c.2686,.823-.1824,1.7111-1.0054,1.9797l-.338,.1103c-.1585,.0518-.3226,.078-.4875,.078-.6811,0-1.2808-.4354-1.4922-1.0834l-3.7307-11.4303c-.2686-.823,.1824-1.7111,1.0054-1.9797l.338-.1103c.1585-.0518,.3226-.078,.4875-.078m0-.25c-.1872,0-.3774,.0291-.5651,.0903l-.338,.1103c-.9556,.3119-1.4774,1.3394-1.1655,2.295l3.7307,11.4303c.2507,.7679,.9636,1.2558,1.7299,1.2558,.1872,0,.3774-.0291,.5651-.0903l.338-.1103c.9556-.3119,1.4774-1.3394,1.1655-2.295l-3.7307-11.4303c-.2507-.7679-.9636-1.2558-1.7299-1.2558h0Z"/></g><g><path d="M148.5833,76.4566c-.7935-.001-1.4902-.5645-1.6562-1.3418l-2.5161-11.7578c-.0942-.4424-.0112-.8955,.2349-1.2754s.626-.6416,1.0684-.7363l.3477-.0742c.1177-.0254,.2378-.0381,.3569-.0381,.793,0,1.4893,.5635,1.6553,1.3408l2.5161,11.7578c.0942,.4424,.0112,.8955-.2349,1.2754s-.6255,.6416-1.0679,.7363l-.3481,.0752c-.1172,.0244-.2368,.0381-.356,.0381h0Z"/><path class="f" d="M146.4184,61.3579c.7346,0,1.3795,.5223,1.5335,1.2419l2.5157,11.7576c.1811,.8466-.3602,1.6827-1.2068,1.8638l-.3477,.0744c-.1089,.0233-.2201,.0351-.3303,.0351-.7346,0-1.3795-.5223-1.5335-1.2419l-2.5157-11.7576c-.1811-.8466,.3602-1.6827,1.2068-1.8638l.3477-.0744c.1089-.0233,.2201-.0351,.3303-.0351m0-.25c-.1262,0-.2543,.0132-.3826,.0406l-.3477,.0744c-.9829,.2103-1.6093,1.1776-1.3989,2.1606l2.5157,11.7576c.1829,.8546,.938,1.4396,1.778,1.4396,.1262,0,.2542-.0132,.3826-.0406l.3477-.0744c.9829-.2103,1.6093-1.1776,1.3989-2.1606l-2.5157-11.7576c-.1829-.8546-.938-1.4396-1.778-1.4396h0Z"/></g><g><path d="M161.9286,74.2818c-.8677,0-1.5913-.6523-1.6831-1.5166l-1.2734-11.9561c-.0991-.9287,.5767-1.7656,1.5059-1.8652l.3535-.0371c.061-.0059,.1216-.0098,.1816-.0098,.8677,0,1.5913,.6523,1.6831,1.5166l1.2734,11.9561c.0483,.4492-.082,.8916-.3667,1.2432-.2842,.3525-.689,.5732-1.1392,.6211l-.3535,.0381c-.061,.0059-.1216,.0098-.1816,.0098Z"/><path class="f" d="M161.0132,59.022c.8036,0,1.4738,.6036,1.559,1.404l1.2733,11.9561c.0444,.417-.0762,.8264-.3397,1.1526s-.6382,.5304-1.0553,.5748l-.3535,.0377c-.0566,.006-.1128,.009-.1685,.009-.8036,0-1.4738-.6036-1.559-1.404l-1.2733-11.9561c-.0444-.417,.0762-.8264,.3397-1.1526s.6382-.5304,1.0553-.5748l.3535-.0377c.0566-.006,.1128-.009,.1685-.009m0-.25c-.0645,0-.1295,.0034-.1949,.0104l-.3535,.0377c-.9996,.1064-1.7236,1.0031-1.6171,2.0026l1.2733,11.9561c.0995,.934,.8889,1.6275,1.8076,1.6275,.0644,0,.1294-.0034,.1949-.0104l.3535-.0377c.9996-.1064,1.7236-1.0031,1.6171-2.0026l-1.2733-11.9561c-.0995-.934-.889-1.6275-1.8076-1.6275h0Z"/></g><path d="M175.889,225.4725h0c-2.5885,0-4.6598-2.1488-4.5648-4.7355l4.0619-110.6069c.0237-.6464,.9822-.6464,1.0059,0l4.0619,110.6069c.095,2.5868-1.9763,4.7355-4.5648,4.7355Z"/><path d="M199.4547,195.399h0c.6059,2.526-.9886,5.0549-3.529,5.5971L45.4246,233.1167c-1.3716,.2927-1.7039-1.0926-.3488-1.454l148.6948-39.6507c2.5099-.6693,5.0782,.8611,5.6841,3.387Z"/><circle class="d" cx="175.9233" cy="201.03" r="7.7258"/><g><circle class="e" cx="132.2106" cy="267.1699" r="29.8404"/><path d="M133.7569,268.2396h0s-1.3759-24.8895-1.3759-24.8895c-.0201-.3629-.3207-.3629-.3407,0l-1.3759,24.8895h0c.8929,1.3277,2.1997,1.3277,3.0926,0Z"/><circle class="e" cx="219.636" cy="267.1699" r="29.8404"/><path d="M221.1822,268.2396h0s-1.3759-24.8895-1.3759-24.8895c-.0201-.3629-.3207-.3629-.3407,0l-1.3759,24.8895h0c.8929,1.3277,2.1997,1.3277,3.0926,0Z"/></g><path d="M338.0143,132.5428c-8.8581-20.9544-21.5471-39.7574-37.6937-55.915-4.9615-4.9505-10.1754-9.5826-15.6197-13.8745l-7.4642-30.3614C272.5607,13.3146,255.5689,0,235.9317,0H115.9571c-19.6042,0-36.5851,13.2927-41.2831,32.3261l-7.519,30.4163c-5.4554,4.2918-10.6693,8.924-15.6308,13.8855-16.1466,16.1576-28.8356,34.9605-37.6937,55.915C4.6541,154.2435,0,177.2945,0,201.0259s4.6541,46.7824,13.8306,68.4942c8.8581,20.9434,21.5471,39.7573,37.6937,55.904,5.0273,5.0273,10.3181,9.7253,15.8393,14.0611l7.2445,29.4722c4.6761,19.0665,21.6679,32.3811,41.3051,32.3811h119.9745c19.6042,0,36.5851-13.2927,41.2941-32.3151l7.2995-29.5381c5.5212-4.3358,10.812-9.0337,15.8393-14.0611,16.1466-16.1466,28.8356-34.9605,37.6937-55.904,9.1765-21.7118,13.8306-44.7517,13.8306-68.4942s-4.6541-46.7824-13.8306-68.4831ZM75.4863,56.4528l5.5761-22.546c3.9735-16.0917,18.331-27.3208,34.8947-27.3208h119.9745c16.5967,0,30.9541,11.262,34.9167,27.3757l5.5542,22.6228c-.011,0-.011-.011-.022-.011-9.9778-6.9592-20.658-12.8537-31.9749-17.6395-21.7008-9.1764-44.7408-13.8305-68.4832-13.8305s-46.7824,4.6541-68.4832,13.8305c-11.1961,4.7419-21.7886,10.5705-31.6785,17.4419l-.2744,.0768Zm195.2962,310.9899c-3.9735,16.0807-18.32,27.3098-34.8947,27.3098H115.9132c-16.5967,0-30.9541-11.251-34.9167-27.3647l-5.3456-21.7886c9.9228,6.9153,20.5482,12.7658,31.7883,17.5187,21.7008,9.1874,44.7408,13.8415,68.4832,13.8415s46.7824-4.6541,68.4832-13.8415c11.2401-4.7529,21.8544-10.6035,31.7774-17.5077l-5.4005,21.8325Zm-94.86-12.4365c-85.0359,0-153.9692-68.9442-153.9692-153.9802S90.8865,47.0568,175.9225,47.0568s153.9692,68.9332,153.9692,153.9691-68.9332,153.9802-153.9692,153.9802Z"/></g></g></svg>