<?xml version="1.0" encoding="UTF-8"?><svg id="b" xmlns="http://www.w3.org/2000/svg" width="179.4336" height="179.4336" viewBox="0 0 179.4336 179.4336"><defs><style>.d{stroke-width:3px;}.d,.e{stroke:#000;stroke-linecap:round;stroke-miterlimit:10;}.e{fill:none;stroke-width:4px;}</style></defs><g id="c"><g><path class="d" d="M100.726,126.8542l-5.8287,9.6206c-.3611,.596-.1707,1.3719,.4253,1.733l9.6206,5.8287c.9614,.5825,2.1471-.2882,1.8792-1.3799l-3.792-15.4493c-.268-1.0917-1.7221-1.3145-2.3045-.353Z"/><path class="e" d="M104.1321,135.4923c11.8633-2.8237,22.6335-10.2133,29.4516-21.4672,13.5121-22.3027,6.386-51.3363-15.9167-64.8484"/><path class="d" d="M78.7076,52.5794l5.8287-9.6206c.3611-.596,.1707-1.3719-.4253-1.733l-9.6206-5.8287c-.9614-.5825-2.1471,.2882-1.8792,1.3799l3.792,15.4493c.268,1.0917,1.7221,1.3145,2.3045,.353Z"/><path class="e" d="M75.3015,43.9413c-11.8633,2.8237-22.6335,10.2133-29.4516,21.4672-13.5121,22.3027-6.386,51.3363,15.9167,64.8484"/></g><path d="M89.7168,3c4.521,0,9.042,2.2556,11.587,6.7669h0c2.4482,4.3396,6.961,6.7693,11.6003,6.7693,2.2985,0,4.6274-.596,6.7529-1.8515h0c2.1749-1.2847,4.4896-1.8701,6.7435-1.8701,6.9896,0,13.4037,5.6241,13.3258,13.4571h0c-.0737,7.4053,5.912,13.4362,13.3002,13.4362,.0454,0,.0898-.0002,.1353-.0007,.0468-.0005,.0945-.0007,.1412-.0007,10.2771,0,16.6907,11.1909,11.4459,20.07h0c-3.7896,6.4155-1.5718,14.6921,4.9177,18.3533h0c9.0225,5.0901,9.0225,18.084,0,23.1741h0c-6.4896,3.6612-8.7073,11.9378-4.9177,18.3532h0c5.2446,8.8786-1.1699,20.0701-11.4459,20.0701-.0472,0-.0938-.0002-.1412-.0007-.045-.0004-.0903-.0007-.1353-.0007-7.3888-.0002-13.3739,6.0305-13.3002,13.4362h0c.0779,7.8323-6.3369,13.4571-13.3258,13.4571-2.2545,0-4.5681-.585-6.7435-1.87h0c-2.125-1.2553-4.4548-1.8514-6.7529-1.8515-4.6398-.0002-9.1519,2.4292-11.6003,6.7692h0c-2.545,4.5113-7.066,6.7669-11.587,6.7669s-9.042-2.2556-11.587-6.7669h0c-2.4482-4.3396-6.961-6.769-11.6003-6.7692-2.2985-.0001-4.6274,.596-6.7529,1.8515h0c-2.1749,1.2847-4.4896,1.8701-6.7435,1.8701-6.9896,0-13.4037-5.6242-13.3258-13.4571h0c.0737-7.4053-5.9121-13.4356-13.3003-13.4362-.0453,0-.0897,.0002-.1352,.0007h0c-.0468,.0005-.0945,.0007-.1412,.0007-10.2771,0-16.6907-11.1909-11.4459-20.07h0c3.7896-6.4154,1.5718-14.6921-4.9177-18.3532h0c-9.0225-5.0901-9.0225-18.084,0-23.1741h0c6.4896-3.6611,8.7073-11.9378,4.9177-18.3532h0c-5.2445-8.8786,1.1699-20.0701,11.4459-20.0701,.0472,0,.0938,.0002,.1412,.0007h0c.045,.0005,.0904,.0007,.1353,.0007,7.3888,0,13.3739-6.0305,13.3002-13.4362h0c-.0779-7.8323,6.3368-13.4571,13.3257-13.4571,2.2544,0,4.5682,.585,6.7436,1.87h0c2.125,1.2553,4.4548,1.8515,6.7529,1.8515,4.6398,0,9.1519-2.4292,11.6003-6.7692h0c2.545-4.5113,7.066-6.7669,11.587-6.7669m0-3c-5.962,0-11.2704,3.1001-14.1999,8.2928-1.8246,3.2342-5.2684,5.2433-8.9875,5.2433-1.8308,0-3.6384-.496-5.2271-1.4345-2.5329-1.4962-5.3924-2.287-8.2693-2.287-4.3311,0-8.5787,1.7813-11.6538,4.8872-3.0564,3.0869-4.7155,7.2065-4.6718,11.5997,.0276,2.7716-1.0311,5.3825-2.9809,7.3519-1.9502,1.9697-4.5497,3.0545-7.3195,3.0545l-.1059-.0005-.1706-.0009c-5.9223,0-11.2126,3.0743-14.1516,8.2236-2.938,5.1478-2.8922,11.2682,.1227,16.3721,1.4195,2.4031,1.8035,5.2114,1.0811,7.9073-.7224,2.6959-2.459,4.9359-4.8898,6.3073C3.1002,78.4464,0,83.7548,0,89.7168c0,5.962,3.1001,11.2704,8.2928,14.1999,2.4309,1.3714,4.1675,3.6114,4.8899,6.3074,.7224,2.6959,.3384,5.5041-1.0811,7.9072-3.0151,5.1043-3.0611,11.2249-.1231,16.3725,2.9388,5.1492,8.2293,8.2233,14.152,8.2233l.1714-.0009,.1051-.0005c2.7697,.0002,5.3693,1.0853,7.3197,3.0554,1.9497,1.9693,3.0082,4.5799,2.9807,7.3509-.0437,4.3936,1.6154,8.5132,4.6716,11.6001,3.075,3.1057,7.3227,4.8869,11.654,4.8869,2.8769,0,5.7364-.7908,8.2693-2.287,1.589-.9386,3.3964-1.4346,5.2271-1.4345,3.7192,.0002,7.1631,2.0093,8.9876,5.2433,2.9295,5.1927,8.2379,8.2928,14.1999,8.2928s11.2704-3.1001,14.1999-8.2928c1.8247-3.2343,5.2684-5.2435,8.9873-5.2433,1.8311,0,3.6387,.4961,5.2273,1.4345,2.5329,1.4962,5.3924,2.287,8.2693,2.287,4.331,0,8.5787-1.7813,11.6538-4.8872,3.0564-3.087,4.7156-7.2065,4.6719-11.5998-.0276-2.7717,1.0311-5.3826,2.981-7.352,1.9503-1.9697,4.5496-3.0544,7.3193-3.0543l.1059,.0005,.1706,.0009c5.9224,0,11.2126-3.0743,14.1516-8.2237,2.938-5.1478,2.8922-11.2682-.1227-16.3721-1.4196-2.4031-1.8035-5.2113-1.0811-7.9072,.7224-2.6959,2.459-4.9359,4.8898-6.3073,5.1927-2.9295,8.2928-8.2379,8.2928-14.2s-3.1001-11.2704-8.2928-14.1999c-2.4309-1.3714-4.1675-3.6114-4.8899-6.3073-.7224-2.6959-.3384-5.5041,1.0811-7.9073,3.015-5.1043,3.0611-11.2248,.1232-16.3725-2.9388-5.1492-8.2294-8.2234-14.1521-8.2234l-.1714,.0009-.105,.0005c-2.7696,0-5.369-1.0849-7.3193-3.0547-1.95-1.9694-3.0086-4.5803-2.981-7.3516,.0437-4.3936-1.6154-8.5132-4.6717-11.6001-3.0749-3.1057-7.3226-4.8869-11.654-4.8869-2.877,0-5.7365,.7908-8.2693,2.287-1.5887,.9385-3.3962,1.4345-5.2271,1.4345-3.7191,0-7.1629-2.0091-8.9875-5.2433-2.9294-5.1927-8.2378-8.2929-14.1999-8.2929h0Z"/></g></svg>