<?xml version="1.0" encoding="UTF-8"?><svg id="b" xmlns="http://www.w3.org/2000/svg" width="419.8023" height="416.12" viewBox="0 0 419.8023 416.12"><defs><style>.d{fill:#fff;}.e{stroke-linejoin:round;}.e,.f{fill:none;stroke:#000;stroke-linecap:round;stroke-width:10px;}.f{stroke-miterlimit:10;}</style></defs><g id="c"><g><path class="d" d="M402.0402,218.63l-17.31-11.82c-12.12-8.27-14.37-25.21-4.82-36.35l13.63-15.91c13.48-15.73,2.69-40.05-18.05-40.64l-20.96-.59c-14.67-.42-25.74-13.46-23.74-27.98l2.86-20.7401c2.82-20.5099-19.43-35.14-37.19-24.45l-17.95,10.82c-12.57,7.5699-28.94,2.5699-35.12-10.72l-8.83-18.99c-8.74-18.78-35.37-19.08-44.52-.49l-9.25,18.79c-6.48,13.15-22.95,17.78-35.35,9.94l-17.71-11.21c-17.52-11.09-40.09,3.04-37.72,23.61l2.39,20.8c1.68,14.57-9.67,27.36-24.35,27.45l-20.97,.13c-20.74,.1299-32.08,24.2-18.95,40.23l13.28,16.2c9.3,11.35,6.67,28.24-5.63,36.24l-17.57,11.43c-17.38,11.3-13.88,37.67,5.85,44.07l19.94,6.46c13.97,4.53,20.9,20.15,14.89,33.52l-8.59,19.1c-8.5,18.89,8.72,39.19,28.78,33.92l20.28-5.33c14.19-3.73,28.49,5.67,30.67,20.17l3.11,20.7c3.08,20.48,28.56,28.26,42.58,13l14.18-15.43c9.92-10.8,27.04-10.61,36.72,.41l13.83,15.74c13.68,15.56,39.32,8.35,42.85-12.05l3.58-20.64c2.5-14.44,17-23.52,31.11-19.48l20.16,5.78c19.93,5.71,37.6-14.2,29.52-33.27l-8.16-19.29c-5.72-13.5,1.56-28.96,15.62-33.18l20.09-6.03c19.86-5.95,23.94-32.24,6.82-43.92Zm3.54,23.03c-1.06,6.88-5.69,12.1801-12.37,14.19l-20.09,6.02c-8.61,2.59-15.7401,8.73-19.5601,16.86-3.81,8.11-4,17.5-.5,25.76l8.17,19.29c2.71,6.4,1.57,13.33-3.04,18.53-4.62,5.23-11.39,7.2-18.12,5.28l-20.15-5.78c-8.64-2.47-17.96-1.15-25.58,3.62-7.59,4.77-12.83,12.57-14.36,21.4l-3.57,20.63c-1.19,6.86-5.9,12.08-12.61,13.97-6.72,1.89-13.4901-.1-18.09-5.34l-13.83-15.7401c-5.93-6.74-14.47-10.67-23.45-10.77h-.35c-8.86,0-17.34,3.72-23.34,10.25l-14.17,15.42c-4.73,5.14-11.53,6.99-18.21,4.94-6.66-2.03-11.26-7.36-12.29-14.24l-3.12-20.7c-1.33-8.87-6.39-16.78-13.88-21.71-7.51-4.94-16.8-6.47-25.49-4.19l-20.28,5.33c-6.76,1.78-13.4901-.35-18-5.68-4.4901-5.3-5.47-12.26-2.62-18.59l8.59-19.1c3.68-8.18,3.71-17.58,.07-25.78-3.64-8.21-10.63-14.5-19.18-17.28l-19.94-6.46c-6.64-2.16-11.15-7.56-12.06-14.46-.91-6.9,2.03-13.29,7.87-17.08l17.57-11.43c7.53-4.9,12.64-12.8,14.01-21.67,1.38-8.86-1.1-17.93-6.78-24.87l-13.28-16.21c-4.41-5.38-5.28-12.35-2.32-18.64,2.96-6.31,8.91-10.11,15.89-10.15l20.97-.13c8.99-.06,17.56-3.95,23.52-10.67,5.95-6.71,8.77-15.67,7.75-24.58l-2.4-20.8c-.79-6.9,2.25-13.23,8.15-16.93,5.92-3.72,12.97-3.7,18.87,.03l17.72,11.21c7.58,4.8,16.9,6.16,25.54,3.73,8.64-2.44,15.87-8.45,19.83-16.49l9.25-18.79c3.04-6.19,8.95-9.86,15.84-9.86h.22c6.97,.08,12.89,3.89,15.83,10.21l8.83,18.99c3.78,8.13,10.87,14.3,19.45,16.92,8.59,2.63,17.93,1.48,25.63-3.15l17.96-10.82c5.98-3.6,13.03-3.46,18.87,.39,5.81,3.82,8.71,10.22,7.76,17.11l-2.85,20.74c-1.22,8.88,1.4,17.9,7.2,24.74,5.8,6.85,14.29,10.93,23.27,11.19l20.97,.59c6.98,.2,12.83,4.13,15.66,10.5,2.81,6.36,1.79,13.3101-2.74,18.59l-13.63,15.91c-5.84,6.8101-8.51,15.82-7.34,24.71,1.1801,8.9,6.11,16.91,13.53,21.97l17.31,11.8199c5.76,3.9301,8.56,10.3701,7.49,17.25Z"/><path d="M405.9902,212.85l-17.32-11.8199c-4.19-2.8701-6.87-7.21-7.54-12.2401-.66-5.03,.79-9.92,4.09-13.77l13.63-15.91c8.01-9.34,9.89-22.13,4.91-33.37-4.99-11.26-15.74-18.47-28.07-18.82l-20.96-.6c-5.09-.14-9.7-2.36-12.99-6.24-3.28-3.87-4.7-8.76-4.01-13.78l2.85-20.75c1.68-12.17-3.66-23.94-13.93-30.7-10.29-6.79-23.24-7.05-33.8-.69l-17.95,10.8101c-4.36,2.6299-9.45,3.2599-14.31,1.77s-8.72-4.84-10.86-9.44l-8.83-18.99C235.7202,7.15,224.8502,.14,212.5302,0h-.36c-12.17,0-23.03,6.75-28.41,17.67l-9.25,18.8c-2.24,4.55-6.17,7.81-11.06,9.1899-4.9,1.38-9.97,.64-14.27-2.08l-17.71-11.21c-10.41-6.59-23.36-6.61-33.8-.06-10.42,6.54-16.02,18.19-14.61,30.39l2.39,20.8c.58,5.04-.95,9.9-4.32,13.69-3.37,3.81-8.03,5.93-13.13,5.96l-20.97,.13c-12.32,.08-23.24,7.05-28.47,18.2-5.23,11.13-3.6299,23.95,4.16,33.46l13.28,16.21c3.21,3.93,4.55,8.85,3.78,13.86-.78,5.01-3.55,9.3-7.81,12.07l-17.57,11.43c-10.32,6.71-15.73,18.46-14.12,30.65,1.62,12.2,9.9,22.14,21.62,25.94l19.94,6.47c4.85,1.57,8.65,4.99,10.7,9.64,2.06,4.63,2.04,9.73-.04,14.35l-8.59,19.1c-5.04,11.21-3.24,24,4.7,33.39,7.97,9.4,20.32,13.3,32.24,10.17l20.29-5.33c4.92-1.29,9.97-.46,14.23,2.34,4.23,2.79,6.98,7.09,7.74,12.1l3.11,20.71c1.83,12.15,10.28,21.94,22.04,25.54,11.79,3.61,24.28,.21,32.61-8.85l14.18-15.43c3.44-3.74,8.13-5.82,13.22-5.72,5.09,.06,9.74,2.19,13.09,6.01l13.83,15.74c6.14,6.99,14.73,10.79,23.6801,10.79,2.89,0,5.83-.4,8.73-1.22,11.84-3.34,20.5-12.94,22.6-25.05l3.57-20.6299c.87-5,3.71-9.23,8.01-11.9301,4.32-2.7,9.38-3.42,14.28-2.02l20.16,5.78c11.85,3.39,24.29-.23,32.46-9.46,8.15-9.2,10.23-21.95,5.44-33.27l-8.17-19.29c-1.97-4.66-1.87-9.76,.28-14.35,2.16-4.6,6.04-7.93,10.91-9.4l20.09-6.02c11.8-3.54,20.3-13.3,22.19-25.46,1.88-12.15-3.27-24.01-13.43-30.95Zm-.41,28.81c-1.06,6.88-5.69,12.1801-12.37,14.19l-20.09,6.02c-8.61,2.59-15.7401,8.73-19.5601,16.86-3.81,8.11-4,17.5-.5,25.76l8.17,19.29c2.71,6.4,1.57,13.33-3.04,18.53-4.62,5.23-11.39,7.2-18.12,5.28l-20.15-5.78c-8.64-2.47-17.96-1.15-25.58,3.62-7.59,4.77-12.83,12.57-14.36,21.4l-3.57,20.63c-1.19,6.86-5.9,12.08-12.61,13.97-6.72,1.89-13.4901-.1-18.09-5.34l-13.83-15.7401c-5.93-6.74-14.47-10.67-23.45-10.77h-.35c-8.86,0-17.34,3.72-23.34,10.25l-14.17,15.42c-4.73,5.14-11.53,6.99-18.21,4.94-6.66-2.03-11.26-7.36-12.29-14.24l-3.12-20.7c-1.33-8.87-6.39-16.78-13.88-21.71-7.51-4.94-16.8-6.47-25.49-4.19l-20.28,5.33c-6.76,1.78-13.4901-.35-18-5.68-4.4901-5.3-5.47-12.26-2.62-18.59l8.59-19.1c3.68-8.18,3.71-17.58,.07-25.78-3.64-8.21-10.63-14.5-19.18-17.28l-19.94-6.46c-6.64-2.16-11.15-7.56-12.06-14.46-.91-6.9,2.03-13.29,7.87-17.08l17.57-11.43c7.53-4.9,12.64-12.8,14.01-21.67,1.38-8.86-1.1-17.93-6.78-24.87l-13.28-16.21c-4.41-5.38-5.28-12.35-2.32-18.64,2.96-6.31,8.91-10.11,15.89-10.15l20.97-.13c8.99-.06,17.56-3.95,23.52-10.67,5.95-6.71,8.77-15.67,7.75-24.58l-2.4-20.8c-.79-6.9,2.25-13.23,8.15-16.93,5.92-3.72,12.97-3.7,18.87,.03l17.72,11.21c7.58,4.8,16.9,6.16,25.54,3.73,8.64-2.44,15.87-8.45,19.83-16.49l9.25-18.79c3.04-6.19,8.95-9.86,15.84-9.86h.22c6.97,.08,12.89,3.89,15.83,10.21l8.83,18.99c3.78,8.13,10.87,14.3,19.45,16.92,8.59,2.63,17.93,1.48,25.63-3.15l17.96-10.82c5.98-3.6,13.03-3.46,18.87,.39,5.81,3.82,8.71,10.22,7.76,17.11l-2.85,20.74c-1.22,8.88,1.4,17.9,7.2,24.74,5.8,6.85,14.29,10.93,23.27,11.19l20.97,.59c6.98,.2,12.83,4.13,15.66,10.5,2.81,6.36,1.79,13.3101-2.74,18.59l-13.63,15.91c-5.84,6.8101-8.51,15.82-7.34,24.71,1.1801,8.9,6.11,16.91,13.53,21.97l17.31,11.8199c5.76,3.9301,8.56,10.3701,7.49,17.25Z"/></g><g><g><polyline class="e" points="118.2399 285.6859 120.7455 264.8936 141.57 267.3954"/><path class="f" d="M124.839,270.0989c36.5611,46.491,103.9463,54.5866,150.5092,18.0819,36.2428-28.4139,49.1878-75.4738,35.9045-116.8622"/></g><g><polyline class="e" points="301.5605 130.4272 299.0548 151.2195 278.2304 148.7177"/><path class="f" d="M294.9613,146.0142c-36.5611-46.491-103.9463-54.5866-150.5092-18.0819-36.2428,28.4139-49.1878,75.4738-35.9045,116.8622"/></g></g></g></svg>