<svg xmlns="http://www.w3.org/2000/svg" viewBox="0 0 195.3982 195.3982"><defs><style>.a,.b{fill:none;}.a,.b,.c{stroke:#000;stroke-miterlimit:10;}.a{stroke-width:8.3982px;}.b{stroke-width:8.53293px;}.c{stroke-width:0.56886px;}</style></defs><path class="a" d="M182.54189,112.84118a12.99086,12.99086,0,0,0,8.59848-11.81887q.05849-1.65438.05873-3.32321,0-1.66871-.05873-3.32324A12.99086,12.99086,0,0,0,182.54189,82.557l-7.00815-2.4922a13.03055,13.03055,0,0,1-7.85291-7.85643q-1.10674-3.039-2.46543-5.95042a13.04728,13.04728,0,0,1-.01-11.126l3.19157-6.7142a12.86392,12.86392,0,0,0-2.11605-14.26082q-2.42334-2.61434-5.03963-5.03963a12.86392,12.86392,0,0,0-14.26081-2.116l-6.7142,3.19156a13.04726,13.04726,0,0,1-11.126-.01q-2.90923-1.35658-5.95043-2.46543a13.03049,13.03049,0,0,1-7.85643-7.8529l-2.4922-7.00816a12.99088,12.99088,0,0,0-11.81888-8.59847q-1.6544-.0585-3.32324-.05874-1.66871,0-3.32324.05874A12.99087,12.99087,0,0,0,82.557,12.85631l-2.4922,7.00816a13.03051,13.03051,0,0,1-7.85643,7.8529q-3.039,1.10675-5.95043,2.46543a13.04728,13.04728,0,0,1-11.126.01l-6.71419-3.19156a12.86393,12.86393,0,0,0-14.26082,2.116q-2.61434,2.42335-5.03963,5.03963a12.86393,12.86393,0,0,0-2.116,14.26082l3.19156,6.7142a13.04728,13.04728,0,0,1-.01,11.126q-1.35658,2.90922-2.46543,5.95042a13.03055,13.03055,0,0,1-7.85291,7.85643L12.85631,82.557A12.99087,12.99087,0,0,0,4.25784,94.37586q-.0585,1.6544-.05874,3.32324,0,1.66871.05874,3.32321a12.99085,12.99085,0,0,0,8.59847,11.81887l7.00815,2.4922a13.03055,13.03055,0,0,1,7.85291,7.85643q1.10675,3.039,2.46544,5.95046a13.0473,13.0473,0,0,1,.01,11.126l-3.19156,6.71421a12.86392,12.86392,0,0,0,2.116,14.26081q2.42335,2.61434,5.03963,5.03963A12.86392,12.86392,0,0,0,48.41772,168.397l6.7142-3.19157a13.04728,13.04728,0,0,1,11.126.01q2.90922,1.3566,5.95042,2.46543a13.03055,13.03055,0,0,1,7.85643,7.85291l2.4922,7.00815a12.99086,12.99086,0,0,0,11.81887,8.59848q1.6544.05849,3.32324.05873,1.66871,0,3.32324-.05873a12.99087,12.99087,0,0,0,11.81888-8.59848l2.4922-7.00815a13.03051,13.03051,0,0,1,7.85642-7.85291q3.039-1.10674,5.95043-2.46543a13.04728,13.04728,0,0,1,11.126-.01l6.7142,3.19157a12.8639,12.8639,0,0,0,14.26081-2.11605q2.61434-2.42334,5.03963-5.03963a12.8639,12.8639,0,0,0,2.11605-14.26081l-3.19157-6.71421a13.0473,13.0473,0,0,1,.01-11.126q1.3566-2.90923,2.46544-5.95046a13.03055,13.03055,0,0,1,7.85291-7.85643Z"/><path d="M99.1991,85.11525A13.08384,13.08384,0,1,1,86.11529,98.1991,13.09868,13.09868,0,0,1,99.1991,85.11525m0-8.53291A21.61676,21.61676,0,1,0,120.81586,98.1991,21.61677,21.61677,0,0,0,99.1991,76.58234Z"/><path class="b" d="M54.93548,119.91545a50.37166,50.37166,0,0,1,77.93625-61.94853"/><polygon class="c" points="108.585 59.801 137.028 68.903 137.028 41.028 108.585 59.801"/><path class="b" d="M146.307,76.86677a50.37166,50.37166,0,0,1-77.93625,61.94852"/><polygon class="c" points="92.657 136.981 64.214 127.88 64.214 155.754 92.657 136.981"/></svg>