<svg xmlns="http://www.w3.org/2000/svg" viewBox="0 0 208.17117 196.45158"><defs><style>.a,.b{fill:none;stroke:#000;stroke-miterlimit:10;}.a{stroke-width:8.53772px;}.b{stroke-width:8.33768px;}</style></defs><circle class="a" cx="81.47052" cy="144.33371" r="47.84901"/><circle class="b" cx="129.66031" cy="88.1524" r="46.75562"/><circle class="b" cx="129.6528" cy="88.04732" r="46.75562"/><path d="M164.55593,51.782,206.37462,9.96332a5.90462,5.90462,0,0,0,0-8.25389,5.94162,5.94162,0,0,0-8.25389,0L156.30205,43.52812a5.83637,5.83637,0,0,0,8.25388,8.25388Z"/><path d="M51.7403,106.81427,9.92161,64.99558a5.90459,5.90459,0,0,0-8.25388,0,5.94161,5.94161,0,0,0,0,8.25388l41.81869,41.81869a5.83637,5.83637,0,0,0,8.25388-8.25388Z"/><path d="M202.24767,0H163.68155a5.90206,5.90206,0,0,0-5.83637,5.83638,5.938,5.938,0,0,0,5.83637,5.83637h38.56612a5.90207,5.90207,0,0,0,5.83638-5.83637A5.938,5.938,0,0,0,202.24767,0Z"/><path d="M29.21233,66.79493,1.95814,94.04912a5.9046,5.9046,0,0,0,0,8.25388,5.94159,5.94159,0,0,0,8.25388,0L37.46621,75.04881a5.83637,5.83637,0,0,0-8.25388-8.25388Z"/><path d="M196.49842,7.92731V46.49343a5.83638,5.83638,0,1,0,11.67275,0V7.92731a5.83638,5.83638,0,1,0-11.67275,0Z"/></svg>