<?xml version="1.0" encoding="UTF-8"?><svg id="b" xmlns="http://www.w3.org/2000/svg" width="184.7198" height="65.1138" viewBox="0 0 184.7198 65.1138"><g id="c"><g><path d="M184.7198,61.5401V3.438c0-.6152-.2081-1.1761-.5429-1.5833-.3257-.4162-.7871-.6604-1.2938-.6604-.1357,0-.2714,.009-.3981,.0543-.8233,.2262-1.4385,1.1219-1.4385,2.1894v3.9265c0,.959-.7781,1.7371-1.7371,1.7371H85.018c-.4524,0-.9047,.0091-1.3571,.0362-12.2592,.7057-22.0303,10.9021-22.0303,23.3512,0,12.4401,9.7711,22.6365,22.0303,23.3422,.4524,.0272,.9047,.0362,1.3571,.0362h94.2916c.959,0,1.7371,.7781,1.7371,1.7371v3.9356c0,.6152,.2081,1.1852,.5428,1.5833s.7871,.6605,1.2938,.6605h.0724c.9771-.0453,1.7642-1.0405,1.7642-2.2438Zm-98.3448-8.3869v-.0543c-.4524,.0362-.9047,.0543-1.3571,.0543s-.9047-.0181-1.3571-.0543c-10.7664-.6876-19.3161-9.6716-19.3161-20.6099,0-10.9473,8.5497-19.9313,19.3161-20.6189,.4524-.0362,.9047-.0543,1.3571-.0543s.9047,.0181,1.3571,.0543v-.0543h92.9345c.959,0,1.7371,.7781,1.7371,1.7371V51.4161c0,.959-.7781,1.7371-1.7371,1.7371H86.3751Z"/><path d="M83.6609,55.8312v.0362h1.3571c-.4524,0-.9047-.0091-1.3571-.0362Zm1.3571-46.7296h-1.3571v.0362c.4524-.0271,.9047-.0362,1.3571-.0362Z"/><path d="M104.6236,32.489c0-3.7637-3.058-6.8217-6.8217-6.8217s-6.8217,3.058-6.8217,6.8217c0,3.7547,3.058,6.8127,6.8217,6.8127s6.8217-3.058,6.8217-6.8127Zm-10.9292,0c0-2.2618,1.8456-4.1075,4.1075-4.1075s4.1075,1.8456,4.1075,4.1075-1.8456,4.0985-4.1075,4.0985-4.1075-1.8366-4.1075-4.0985Z"/><path d="M129.9109,32.5614c0-3.7637-3.058-6.8217-6.8126-6.8217-3.7637,0-6.8217,3.058-6.8217,6.8217s3.058,6.8217,6.8217,6.8217c3.7546,0,6.8126-3.058,6.8126-6.8217Zm-10.9202,0c0-2.2618,1.8457-4.1075,4.1075-4.1075s4.0984,1.8457,4.0984,4.1075-1.8366,4.1075-4.0984,4.1075-4.1075-1.8456-4.1075-4.1075Z"/><path d="M155.2074,32.5614c0-3.7637-3.058-6.8217-6.8217-6.8217-3.7546,0-6.8126,3.058-6.8126,6.8217s3.058,6.8217,6.8126,6.8217c3.7637,0,6.8217-3.058,6.8217-6.8217Zm-10.9202,0c0-2.2618,1.8366-4.1075,4.0984-4.1075s4.1075,1.8457,4.1075,4.1075-1.8457,4.1075-4.1075,4.1075-4.0984-1.8456-4.0984-4.1075Z"/><path d="M5.1208,62.0739v-5.4375c0-.38,.3076-.6876,.6876-.6876H62.8791c.579,0,.8957-.6695,.5338-1.1219-1.149-1.4114-3.1213-3.9627-4.6141-6.4869-3.1304-5.2746-4.7046-10.5764-4.7046-15.851,0-5.2565,1.5652-10.513,4.7046-15.7153,1.8275-3.0399,3.5375-5.2384,4.5598-6.4689,.371-.4524,.0543-1.1219-.5338-1.1219H5.8084c-.38,0-.6876-.3166-.6876-.6966V3.049c0-.8414-.2895-1.6014-.7509-2.1533s-1.0947-.8957-1.8095-.8957C1.149,0,0,1.3752,0,3.049V62.0739c0,.8414,.2895,1.6014,.7509,2.1533s1.0947,.8866,1.8095,.8866c1.4204,0,2.5604-1.3571,2.5604-3.0399Zm.8414-8.8393c-.38,0-.6876-.3166-.6876-.6966V12.5848c0-.38,.3076-.6876,.6876-.6876H57.4326c.5519,0,.8776,.5972,.579,1.0586-.4976,.7418-1.0133,1.5471-1.5381,2.4156-3.3746,5.6003-5.0937,11.3544-5.0937,17.1176,0,5.736,1.71,11.5354,5.0846,17.2352,.4795,.8233,1.0133,1.6466,1.5562,2.4337,.3076,.4524-.0181,1.0766-.57,1.0766H5.9622Z"/></g></g></svg>