<?xml version="1.0" encoding="UTF-8"?><svg id="b" xmlns="http://www.w3.org/2000/svg" width="226.8201" height="401.34" viewBox="0 0 226.8201 401.34"><g id="c"><path d="M194.5601,84.18V20c0-11.05-8.96-20-20-20H52.26c-11.04,0-20,8.95-20,20V84.18C12.9,96.29,0,117.81,0,142.28v83.19c0,15.3,12.45,27.74,27.74,27.74h4.52v128.13c0,11.04,8.96,20,20,20h122.3c11.04,0,20-8.96,20-20V253.21h4.52c15.2899,0,27.74-12.44,27.74-27.74v-83.19c0-24.47-12.9-45.99-32.26-58.1ZM113.41,27.2c7.96,0,14.41,6.45,14.41,14.41s-6.4501,14.41-14.41,14.41-14.41-6.45-14.41-14.41,6.45-14.41,14.41-14.41Zm0,267.4901c-7.9601,0-14.41-6.45-14.41-14.41s6.45-14.41,14.41-14.41,14.41,6.45,14.41,14.41-6.4501,14.41-14.41,14.41Zm0-100.1801c-7.9601,0-14.41-6.45-14.41-14.41,0-2.74,.76-5.3,2.0801-7.48,.9199-1.51,2.1099-2.83,3.5-3.91,1.0599-.83,2.23-1.51,3.5-2.01v-50.7599c0-2.9301,2.3899-5.32,5.33-5.32s5.33,2.39,5.33,5.32v50.7599c1.27,.5,2.4399,1.18,3.5,2.01,1.39,1.08,2.5801,2.4,3.5,3.91,1.3201,2.18,2.0801,4.74,2.0801,7.48,0,7.96-6.4501,14.41-14.41,14.41Zm106.41,30.96c0,11.44-9.3101,20.74-20.74,20.74h-4.52v-74.87c0-27.61-22.39-50-50-50h-18.8201v-5.4c0-6.8-5.53-12.32-12.33-12.32s-12.33,5.52-12.33,12.32v5.4h-18.8201c-27.61,0-50,22.39-50,50v74.87h-4.52c-11.4299,0-20.74-9.3-20.74-20.74v-83.19c0-21.07,10.65-39.7,26.8601-50.79,9.8699-6.75,21.7999-10.71,34.6399-10.71h89.8201c12.84,0,24.77,3.96,34.6399,10.71,16.2101,11.09,26.8601,29.72,26.8601,50.79v83.19Z"/></g></svg>